<svg width="28" height="28" viewBox="0 0 28 28" fill="none" xmlns="http://www.w3.org/2000/svg">
<path d="M22.1667 12.8334H8.33008L12.5651 7.7467C12.7631 7.50845 12.8584 7.20129 12.8299 6.89279C12.8015 6.5843 12.6517 6.29973 12.4134 6.1017C12.1752 5.90368 11.868 5.8084 11.5595 5.83685C11.251 5.86529 10.9664 6.01512 10.7684 6.25337L4.93508 13.2534C4.89584 13.309 4.86074 13.3675 4.83008 13.4284C4.83008 13.4867 4.83008 13.5217 4.74841 13.58C4.69553 13.7138 4.66785 13.8562 4.66675 14C4.66785 14.1439 4.69553 14.2863 4.74841 14.42C4.74841 14.4784 4.74841 14.5134 4.83008 14.5717C4.86074 14.6325 4.89584 14.691 4.93508 14.7467L10.7684 21.7467C10.8781 21.8784 11.0155 21.9843 11.1707 22.0569C11.326 22.1295 11.4954 22.167 11.6667 22.1667C11.9393 22.1672 12.2035 22.0723 12.4134 21.8984C12.5315 21.8004 12.6292 21.6801 12.7008 21.5444C12.7724 21.4087 12.8165 21.2601 12.8305 21.1073C12.8446 20.9545 12.8284 20.8004 12.7829 20.6539C12.7373 20.5074 12.6633 20.3713 12.5651 20.2534L8.33008 15.1667H22.1667C22.4762 15.1667 22.7729 15.0438 22.9917 14.825C23.2105 14.6062 23.3334 14.3095 23.3334 14C23.3334 13.6906 23.2105 13.3939 22.9917 13.1751C22.7729 12.9563 22.4762 12.8334 22.1667 12.8334Z" fill="white"/>
</svg>
