<svg fill="none" height="18" viewBox="0 0 18 18" width="18" xmlns="http://www.w3.org/2000/svg">
    <path
        d="M0 1.92857C0 1.41708 0.203188 0.926543 0.564865 0.564865C0.926543 0.203188 1.41708 0 1.92857 0H5.78571C6.2972 0 6.78774 0.203188 7.14942 0.564865C7.5111 0.926543 7.71428 1.41708 7.71428 1.92857V5.78571C7.71428 6.2972 7.5111 6.78774 7.14942 7.14942C6.78774 7.5111 6.2972 7.71428 5.78571 7.71428H1.92857C1.41708 7.71428 0.926543 7.5111 0.564865 7.14942C0.203188 6.78774 0 6.2972 0 5.78571V1.92857ZM1.92857 1.28571C1.75807 1.28571 1.59456 1.35344 1.474 1.474C1.35344 1.59456 1.28571 1.75807 1.28571 1.92857V5.78571C1.28571 5.95621 1.35344 6.11972 1.474 6.24028C1.59456 6.36084 1.75807 6.42857 1.92857 6.42857H5.78571C5.95621 6.42857 6.11972 6.36084 6.24028 6.24028C6.36084 6.11972 6.42857 5.95621 6.42857 5.78571V1.92857C6.42857 1.75807 6.36084 1.59456 6.24028 1.474C6.11972 1.35344 5.95621 1.28571 5.78571 1.28571H1.92857ZM10.2857 1.92857C10.2857 1.41708 10.4889 0.926543 10.8506 0.564865C11.2123 0.203188 11.7028 0 12.2143 0H16.0714C16.5829 0 17.0735 0.203188 17.4351 0.564865C17.7968 0.926543 18 1.41708 18 1.92857V5.78571C18 6.2972 17.7968 6.78774 17.4351 7.14942C17.0735 7.5111 16.5829 7.71428 16.0714 7.71428H12.2143C11.7028 7.71428 11.2123 7.5111 10.8506 7.14942C10.4889 6.78774 10.2857 6.2972 10.2857 5.78571V1.92857ZM12.2143 1.28571C12.0438 1.28571 11.8803 1.35344 11.7597 1.474C11.6392 1.59456 11.5714 1.75807 11.5714 1.92857V5.78571C11.5714 5.95621 11.6392 6.11972 11.7597 6.24028C11.8803 6.36084 12.0438 6.42857 12.2143 6.42857H16.0714C16.2419 6.42857 16.4054 6.36084 16.526 6.24028C16.6466 6.11972 16.7143 5.95621 16.7143 5.78571V1.92857C16.7143 1.75807 16.6466 1.59456 16.526 1.474C16.4054 1.35344 16.2419 1.28571 16.0714 1.28571H12.2143ZM0 12.2143C0 11.7028 0.203188 11.2123 0.564865 10.8506C0.926543 10.4889 1.41708 10.2857 1.92857 10.2857H5.78571C6.2972 10.2857 6.78774 10.4889 7.14942 10.8506C7.5111 11.2123 7.71428 11.7028 7.71428 12.2143V16.0714C7.71428 16.5829 7.5111 17.0735 7.14942 17.4351C6.78774 17.7968 6.2972 18 5.78571 18H1.92857C1.41708 18 0.926543 17.7968 0.564865 17.4351C0.203188 17.0735 0 16.5829 0 16.0714V12.2143ZM1.92857 11.5714C1.75807 11.5714 1.59456 11.6392 1.474 11.7597C1.35344 11.8803 1.28571 12.0438 1.28571 12.2143V16.0714C1.28571 16.2419 1.35344 16.4054 1.474 16.526C1.59456 16.6466 1.75807 16.7143 1.92857 16.7143H5.78571C5.95621 16.7143 6.11972 16.6466 6.24028 16.526C6.36084 16.4054 6.42857 16.2419 6.42857 16.0714V12.2143C6.42857 12.0438 6.36084 11.8803 6.24028 11.7597C6.11972 11.6392 5.95621 11.5714 5.78571 11.5714H1.92857ZM10.2857 12.2143C10.2857 11.7028 10.4889 11.2123 10.8506 10.8506C11.2123 10.4889 11.7028 10.2857 12.2143 10.2857H16.0714C16.5829 10.2857 17.0735 10.4889 17.4351 10.8506C17.7968 11.2123 18 11.7028 18 12.2143V16.0714C18 16.5829 17.7968 17.0735 17.4351 17.4351C17.0735 17.7968 16.5829 18 16.0714 18H12.2143C11.7028 18 11.2123 17.7968 10.8506 17.4351C10.4889 17.0735 10.2857 16.5829 10.2857 16.0714V12.2143ZM12.2143 11.5714C12.0438 11.5714 11.8803 11.6392 11.7597 11.7597C11.6392 11.8803 11.5714 12.0438 11.5714 12.2143V16.0714C11.5714 16.2419 11.6392 16.4054 11.7597 16.526C11.8803 16.6466 12.0438 16.7143 12.2143 16.7143H16.0714C16.2419 16.7143 16.4054 16.6466 16.526 16.526C16.6466 16.4054 16.7143 16.2419 16.7143 16.0714V12.2143C16.7143 12.0438 16.6466 11.8803 16.526 11.7597C16.4054 11.6392 16.2419 11.5714 16.0714 11.5714H12.2143Z"
        fill="white" />
</svg>
