<svg width="88" height="16" viewBox="0 0 88 16" fill="none" xmlns="http://www.w3.org/2000/svg">
<path d="M9.08324 0.00170898H10.6644C10.8273 0.00170898 10.9579 0.134039 10.9579 0.295209V15.525C10.9579 15.6878 10.8256 15.8185 10.6644 15.8185H9.08324C8.92037 15.8185 8.78974 15.6862 8.78974 15.525V9.08494C8.78974 8.92208 8.65741 8.79144 8.49624 8.79144H2.46337C2.3005 8.79144 2.16987 8.92377 2.16987 9.08494V15.525C2.16987 15.6878 2.03754 15.8185 1.87637 15.8185H0.2935C0.13233 15.8202 0 15.6878 0 15.525V0.295209C0 0.134039 0.13233 0.00170898 0.2935 0.00170898H1.87467C2.03754 0.00170898 2.16817 0.134039 2.16817 0.295209V6.62158C2.16817 6.78445 2.3005 6.91508 2.46167 6.91508H8.49454C8.65741 6.91508 8.78804 6.78275 8.78804 6.62158V0.295209C8.78974 0.134039 8.92207 0.00170898 9.08324 0.00170898Z" fill="white"/>
<path d="M16.0882 15.1534C15.2603 14.5885 14.6801 13.8013 14.3476 12.7919C14.0762 11.9792 13.9404 11.0597 13.9404 10.035C13.9404 8.96618 14.0677 8.06193 14.3238 7.32394C14.6547 6.32977 15.2349 5.54936 16.0645 4.98611C16.8924 4.42117 17.8798 4.13785 19.0249 4.13785C20.109 4.13785 21.054 4.41947 21.8615 4.98611C22.6674 5.55106 23.2442 6.32298 23.5903 7.30188C23.8618 8.07041 23.9975 8.97466 23.9975 10.0129C23.9975 11.0682 23.8618 11.9945 23.5903 12.7919C23.2595 13.8013 22.6861 14.5885 21.8734 15.1534C21.0608 15.7184 20.1039 16 19.0029 16C17.8883 16 16.9161 15.7184 16.0882 15.1534ZM20.5857 13.6164C21.037 13.2771 21.3611 12.7986 21.5579 12.1811C21.7241 11.6094 21.8073 10.9002 21.8073 10.057C21.8073 9.21387 21.7309 8.51321 21.5816 7.95505C21.3865 7.33751 21.0625 6.85909 20.6095 6.51978C20.1582 6.18047 19.6068 6.01082 18.9605 6.01082C18.3429 6.01082 17.8085 6.18047 17.3556 6.51978C16.9043 6.85909 16.5802 7.33751 16.3834 7.95505C16.2172 8.48267 16.134 9.18334 16.134 10.057C16.134 10.9308 16.2172 11.6382 16.3834 12.1811C16.565 12.7986 16.8839 13.2771 17.3437 13.6164C17.8034 13.9557 18.3565 14.1253 19.0046 14.1253C19.6052 14.1253 20.1328 13.9557 20.5857 13.6164Z" fill="white"/>
<path d="M32.0187 6.10243H29.8488C29.6859 6.10243 29.5553 6.23476 29.5553 6.39593V12.1811C29.5553 12.8139 29.6978 13.2703 29.9845 13.5485C30.2712 13.8267 30.7157 13.9659 31.318 13.9659H31.905C32.0679 13.9659 32.1985 14.0982 32.1985 14.2594V15.5928C32.1985 15.7438 32.1222 15.8185 31.9729 15.8185C31.491 15.849 31.145 15.8643 30.9329 15.8643C29.7877 15.8643 28.9259 15.6573 28.3457 15.2433C27.7655 14.8294 27.4754 14.0643 27.4754 12.9496V6.39593C27.4754 6.23306 27.343 6.10243 27.1819 6.10243H26.074C25.9111 6.10243 25.7805 5.9701 25.7805 5.80893V4.61118C25.7805 4.44831 25.9128 4.31768 26.074 4.31768H27.1819C27.3447 4.31768 27.4754 4.18535 27.4754 4.02418V1.62867C27.4754 1.46581 27.6077 1.33517 27.7689 1.33517H29.2601C29.423 1.33517 29.5536 1.4675 29.5536 1.62867V4.02418C29.5536 4.18705 29.6859 4.31768 29.8471 4.31768H32.017C32.1798 4.31768 32.3105 4.45001 32.3105 4.61118V5.80893C32.3139 5.9718 32.1815 6.10243 32.0187 6.10243Z" fill="white"/>
<path d="M38.5045 2.32934C38.2331 2.61605 38.0974 3.15725 38.0974 3.95631V4.02418C38.0974 4.18704 38.2297 4.31768 38.3909 4.31768H40.4929C40.6557 4.31768 40.7864 4.45001 40.7864 4.61118V6.01251C40.7864 6.17538 40.654 6.30601 40.4929 6.30601H38.3909C38.228 6.30601 38.0974 6.43834 38.0974 6.59951V15.525C38.0974 15.6878 37.965 15.8185 37.8039 15.8185H36.2227C36.0598 15.8185 35.9292 15.6861 35.9292 15.525V6.59951C35.9292 6.43664 35.7969 6.30601 35.6357 6.30601H34.3921C34.2293 6.30601 34.0986 6.17368 34.0986 6.01251V4.61118C34.0986 4.44831 34.231 4.31768 34.3921 4.31768H35.6357C35.7986 4.31768 35.9292 4.18535 35.9292 4.02418V3.82059C35.9292 2.82642 36.0463 2.05789 36.2787 1.515C36.5128 0.972113 36.9081 0.585304 37.4646 0.351182C38.021 0.117061 38.8048 0 39.8142 0H40.5149C40.6778 0 40.8084 0.13233 40.8084 0.2935V1.60492C40.8084 1.76779 40.6761 1.89842 40.5149 1.89842H40.0399C39.2883 1.90012 38.776 2.04263 38.5045 2.32934Z" fill="white"/>
<path d="M44.1319 15.1534C43.304 14.5885 42.7238 13.8013 42.3913 12.7919C42.1199 11.9792 41.9841 11.0597 41.9841 10.035C41.9841 8.96618 42.1114 8.06193 42.3675 7.32394C42.6984 6.32977 43.2786 5.54936 44.1082 4.98611C44.9361 4.42117 45.9235 4.13785 47.0686 4.13785C48.1527 4.13785 49.0977 4.41947 49.9052 4.98611C50.7111 5.55106 51.2879 6.32298 51.634 7.30188C51.9055 8.07041 52.0412 8.97466 52.0412 10.0129C52.0412 11.0682 51.9055 11.9945 51.634 12.7919C51.3032 13.8013 50.7298 14.5885 49.9171 15.1534C49.1045 15.7184 48.1476 16 47.0466 16C45.932 16 44.9598 15.7184 44.1319 15.1534ZM48.6278 13.6164C49.079 13.2771 49.4031 12.7986 49.5999 12.1811C49.7661 11.6094 49.8493 10.9002 49.8493 10.057C49.8493 9.21387 49.7729 8.51321 49.6236 7.95505C49.4285 7.33751 49.1045 6.85909 48.6515 6.51978C48.2002 6.18047 47.6489 6.01082 47.0025 6.01082C46.3849 6.01082 45.8505 6.18047 45.3976 6.51978C44.9463 6.85909 44.6222 7.33751 44.4254 7.95505C44.2592 8.48267 44.1761 9.18334 44.1761 10.057C44.1761 10.9308 44.2592 11.6382 44.4254 12.1811C44.607 12.7986 44.9259 13.2771 45.3857 13.6164C45.8454 13.9557 46.3985 14.1253 47.0466 14.1253C47.6489 14.1253 48.1765 13.9557 48.6278 13.6164Z" fill="white"/>
<path d="M56.559 15.1297C55.7463 14.5495 55.1882 13.7623 54.8862 12.7681C54.6605 12.0759 54.5469 11.1632 54.5469 10.0333C54.5469 8.99333 54.6605 8.08229 54.8862 7.29849C55.1882 6.33486 55.748 5.56633 56.5691 4.99291C57.3903 4.42117 58.3658 4.13446 59.4957 4.13446C60.6256 4.13446 61.6112 4.42117 62.4561 4.99291C63.2993 5.56633 63.849 6.28906 64.1051 7.16277C64.1951 7.40368 64.2561 7.65307 64.2867 7.90925C64.2867 8.0297 64.2188 8.10604 64.0831 8.13488L62.3882 8.38258H62.3424C62.2373 8.38258 62.1609 8.31472 62.1168 8.17899L62.0489 7.81763C61.9285 7.30528 61.635 6.87606 61.1684 6.52996C60.7019 6.18387 60.137 6.01083 59.4736 6.01083C58.8255 6.01083 58.2759 6.18387 57.8246 6.52996C57.3733 6.87606 57.0781 7.33582 56.9441 7.90925C56.8084 8.45214 56.7405 9.16807 56.7405 10.0554C56.7405 10.9291 56.8084 11.6365 56.9441 12.1794C57.0951 12.7817 57.392 13.2567 57.8365 13.6028C58.2809 13.9489 58.8272 14.1219 59.4753 14.1219C60.1386 14.1219 60.707 13.9489 61.182 13.6028C61.657 13.2567 61.9539 12.8037 62.0744 12.2473C62.0897 12.232 62.0931 12.2133 62.0863 12.1913C62.0778 12.1692 62.0829 12.1506 62.0981 12.1353V12.0454C62.1439 11.9249 62.2254 11.8791 62.3475 11.9097L64.0424 12.1811C64.1628 12.2117 64.2239 12.271 64.2239 12.3626V12.4526C64.2239 12.5883 64.1866 12.7545 64.1102 12.9496C63.8541 13.8692 63.3044 14.6072 62.4612 15.1636C61.618 15.7218 60.6306 16 59.5008 16C58.3522 16 57.3733 15.7099 56.559 15.1297Z" fill="white"/>
<path d="M73.9127 4.31766H75.4719C75.6347 4.31766 75.7654 4.44999 75.7654 4.61116V15.525C75.7654 15.6878 75.633 15.8185 75.4719 15.8185H73.9127C73.7499 15.8185 73.6192 15.6861 73.6192 15.525V14.7564C73.6192 14.7259 73.6074 14.7072 73.5853 14.7004C73.5633 14.6937 73.5361 14.7038 73.5056 14.7344C72.9033 15.5623 71.977 15.9779 70.7267 15.9779C69.9887 15.9779 69.3067 15.8354 68.6823 15.5487C68.0563 15.262 67.5558 14.8412 67.1792 14.2831C66.8026 13.7266 66.6143 13.048 66.6143 12.2489V4.61116C66.6143 4.44829 66.7466 4.31766 66.9078 4.31766H68.4669C68.6297 4.31766 68.7604 4.44999 68.7604 4.61116V11.572C68.7604 12.3558 68.9673 12.9734 69.3813 13.4246C69.7953 13.8759 70.3789 14.1033 71.1321 14.1033C71.8854 14.1033 72.4877 13.8742 72.9406 13.4145C73.3919 12.9547 73.6192 12.3406 73.6192 11.572V4.61116C73.6192 4.44999 73.7516 4.31766 73.9127 4.31766Z" fill="white"/>
<path d="M80.5906 15.5487C79.9052 15.2773 79.3742 14.904 78.9976 14.4307C78.6209 13.9557 78.4326 13.4331 78.4326 12.8597V12.6782C78.4326 12.5153 78.5649 12.3847 78.7261 12.3847H80.2174C80.3802 12.3847 80.5109 12.517 80.5109 12.6782V12.724C80.5109 13.1464 80.7399 13.5146 81.1997 13.8318C81.6594 14.1474 82.243 14.3068 82.9505 14.3068C83.6274 14.3068 84.1788 14.1592 84.5995 13.8657C85.0203 13.5722 85.2323 13.199 85.2323 12.7477C85.2323 12.3117 85.0355 11.9826 84.6453 11.7654C84.2534 11.5466 83.6206 11.3176 82.7469 11.0766C81.8885 10.8357 81.1691 10.5914 80.5889 10.342C80.0087 10.0927 79.5184 9.73978 79.1197 9.28002C78.721 8.82026 78.5208 8.22986 78.5208 7.50544C78.5208 6.49601 78.9161 5.69355 79.7067 5.09806C80.4973 4.50258 81.5491 4.20569 82.8589 4.20569C83.7326 4.20569 84.5045 4.3448 85.1746 4.62304C85.8448 4.90127 86.3605 5.28977 86.7219 5.78686C87.0832 6.28394 87.2648 6.8421 87.2648 7.45964C87.2648 7.6225 87.1324 7.75314 86.9713 7.75314H85.5258C85.363 7.75314 85.2323 7.62081 85.2323 7.45964C85.2323 7.02363 85.0169 6.65718 84.5876 6.36368C84.1584 6.07018 83.5748 5.92258 82.8368 5.92258C82.1735 5.92258 81.6357 6.05152 81.2217 6.306C80.8078 6.56217 80.6008 6.90827 80.6008 7.34597C80.6008 7.78368 80.801 8.1145 81.1997 8.34014C81.5983 8.56578 82.243 8.80668 83.132 9.06286C84.0057 9.30377 84.7318 9.54128 85.3121 9.77541C85.8923 10.0095 86.386 10.3556 86.7931 10.8154C87.2003 11.2751 87.4039 11.874 87.4039 12.612C87.4039 13.6367 87.0001 14.451 86.1943 15.0533C85.3884 15.6556 84.3145 15.9576 82.9742 15.9576C82.07 15.9559 81.276 15.8202 80.5906 15.5487Z" fill="white"/>
</svg>
