<svg fill="none" height="35" viewBox="0 0 35 35" width="35" xmlns="http://www.w3.org/2000/svg">
    <path
        d="M32.2999 29.4288C32.1865 29.6041 32.031 29.7482 31.8476 29.848C31.6642 29.9478 31.4587 30.0001 31.2499 30L19.9999 30C19.6684 30 19.3505 29.8683 19.116 29.6339C18.8816 29.3995 18.7499 29.0815 18.7499 28.75L18.7499 3.75001C18.75 3.46405 18.8481 3.18675 19.0279 2.96438C19.2076 2.742 19.4582 2.58799 19.7378 2.52803C20.0174 2.46807 20.3092 2.5058 20.5643 2.63491C20.8195 2.76402 21.0226 2.97671 21.1399 3.23751L32.3899 28.2375C32.4755 28.4278 32.5122 28.6365 32.4964 28.8446C32.4807 29.0527 32.4132 29.2535 32.2999 29.4288ZM21.2499 9.57376L21.2499 27.4988L29.3162 27.4988L21.2499 9.57501L21.2499 9.57376ZM3.43742 30C3.28009 29.9999 3.12532 29.9601 2.98737 29.8845C2.84942 29.8088 2.73273 29.6996 2.64806 29.567C2.56339 29.4344 2.51345 29.2826 2.50286 29.1256C2.49226 28.9687 2.52134 28.8115 2.58742 28.6688L14.4624 3.04376C14.5524 2.85036 14.7057 2.69343 14.8969 2.59888C15.0881 2.50432 15.3058 2.4778 15.5141 2.52369C15.7224 2.56957 15.9089 2.68513 16.0426 2.85127C16.1764 3.01741 16.2495 3.2242 16.2499 3.43751L16.2499 29.0625C16.2499 29.3111 16.1512 29.5496 15.9753 29.7254C15.7995 29.9012 15.5611 30 15.3124 30L3.43742 30Z"
        fill="white" />
</svg>
