<svg fill="none" height="26" viewBox="0 0 26 26" width="26" xmlns="http://www.w3.org/2000/svg">
    <path
        d="M12.9997 6.49998V4.33331M12.9997 6.49998C12.425 6.49998 11.8739 6.72825 11.4676 7.13458C11.0613 7.54091 10.833 8.09201 10.833 8.66665C10.833 9.24128 11.0613 9.79238 11.4676 10.1987C11.8739 10.605 12.425 10.8333 12.9997 10.8333M12.9997 6.49998V10.8333M12.9997 6.49998C13.5743 6.49998 14.1254 6.72825 14.5317 7.13458C14.9381 7.54091 15.1663 8.09201 15.1663 8.66665C15.1663 9.24128 14.9381 9.79238 14.5317 10.1987C14.1254 10.605 13.5743 10.8333 12.9997 10.8333M12.9997 10.8333V21.6666M6.49967 19.5C7.07431 19.5 7.62541 19.2717 8.03174 18.8654C8.43807 18.459 8.66634 17.9079 8.66634 17.3333C8.66634 16.7587 8.43807 16.2076 8.03174 15.8012C7.62541 15.3949 7.07431 15.1666 6.49967 15.1666M6.49967 19.5V15.1666M6.49967 19.5C5.92504 19.5 5.37394 19.2717 4.96761 18.8654C4.56128 18.459 4.33301 17.9079 4.33301 17.3333C4.33301 16.7587 4.56128 16.2076 4.96761 15.8012C5.37394 15.3949 5.92504 15.1666 6.49967 15.1666M6.49967 19.5V21.6666M6.49967 15.1666V4.33331M19.4997 19.5C20.0743 19.5 20.6254 19.2717 21.0317 18.8654C21.4381 18.459 21.6663 17.9079 21.6663 17.3333C21.6663 16.7587 21.4381 16.2076 21.0317 15.8012C20.6254 15.3949 20.0743 15.1666 19.4997 15.1666M19.4997 19.5V15.1666M19.4997 19.5C18.925 19.5 18.3739 19.2717 17.9676 18.8654C17.5613 18.459 17.333 17.9079 17.333 17.3333C17.333 16.7587 17.5613 16.2076 17.9676 15.8012C18.3739 15.3949 18.925 15.1666 19.4997 15.1666M19.4997 19.5V21.6666M19.4997 15.1666V4.33331"
        stroke="white" stroke-linecap="round" stroke-linejoin="round" stroke-width="1.65" />
</svg>
