<svg fill="none" height="37" viewBox="0 0 30 37" width="30" xmlns="http://www.w3.org/2000/svg">
    <path
        d="M4.12598 12.8152C4.12598 12.8152 4.75272 12.6251 5.02094 12.3353C5.28915 12.0456 5.69889 11.8555 5.69889 11.8555C5.0088 11.9256 4.56133 12.5537 4.12598 12.8152Z"
        fill="black" />
    <path
        d="M9.95522 11.3784C9.50909 11.4943 9.12766 11.8259 8.97266 11.9755C9.27187 11.7207 10.0846 11.4053 10.0846 11.4053L9.95522 11.3784Z"
        fill="black" />
    <path
        d="M8.89941 12.0496C8.89941 12.0496 8.92502 12.0213 8.9722 11.9755C8.94389 11.9997 8.91828 12.0253 8.89941 12.0496Z"
        fill="black" />
    <path
        d="M16.3825 9.88095L16.2032 9.75021C16.2032 9.75021 15.3582 9.52512 15.0967 9.31216C15.0967 9.31216 15.7234 10.0589 16.3825 9.88095Z"
        fill="black" />
    <path
        d="M16.5042 9.3755C16.7468 9.95911 16.7158 10.8177 17.2724 11.1789C17.2724 11.1789 17.2536 10.7516 17.3493 10.6694C17.445 10.5859 17.7199 10.9889 17.7711 11.3272C17.7711 10.2718 16.9018 10.195 16.7791 9.53185C16.6578 8.86872 16.5419 8.57759 15.5566 8.50076C15.558 8.50076 16.2616 8.79189 16.5042 9.3755Z"
        fill="black" />
    <path
        d="M27.7895 13.3718L28.5577 13.3961C27.6426 12.9877 27.7275 13.3327 26.7031 12.5901C26.7018 12.5901 27.1883 13.1535 27.7895 13.3718Z"
        fill="black" />
    <path
        d="M14.9501 11.3784C14.6562 11.9148 13.5241 11.962 13.8246 12.5429C14.1252 13.1238 15.3086 13.5619 15.3086 13.5619H20.0354C18.4719 12.3475 16.7629 12.5887 16.1106 12.214C15.4582 11.8393 16.2467 11.6695 16.1779 11.3272C16.0432 10.6667 13.6494 10.8662 13.6494 10.8662C14.7155 10.9511 15.0512 11.1924 14.9501 11.3784Z"
        fill="black" />
    <path
        d="M25.8783 18.441L29.446 15.1361C30.1847 14.4514 30.1847 13.3422 29.446 12.6575L16.337 0.513523C15.5984 -0.171174 14.4002 -0.171174 13.6616 0.513523L0.553958 12.6575C-0.184653 13.3422 -0.184653 14.4514 0.553958 15.1361L4.12166 18.441L0.553958 21.7459C-0.184653 22.4306 -0.184653 23.5398 0.553958 24.2245L5.63662 28.9325L5.8078 29.0916L5.84958 29.1293L13.663 36.3671C14.4016 37.0518 15.5998 37.0518 16.3384 36.3671L26.1654 27.2626L27.0038 26.4862L29.446 24.2232C30.1847 23.5385 30.1847 22.4292 29.446 21.7445L25.8783 18.441ZM14.4703 1.25887C14.7628 0.987959 15.2372 0.987959 15.5297 1.25887L27.1008 11.9782L26.8744 11.9499C26.8744 11.9499 25.8258 10.943 24.6612 10.5751C24.393 10.8002 23.459 11.6655 23.459 11.6655C22.6274 10.3136 21.8079 9.93485 21.1946 9.74481C20.58 9.55477 20.0692 8.8795 19.3009 8.68946C18.5327 8.49942 18.4814 8.20289 18.2011 7.82415C17.9194 7.44541 17.5744 7.34972 17.1013 7.1125C16.6282 6.87528 16.2953 6.56663 15.2588 5.31719C14.0686 5.79702 12.2774 7.87807 11.2732 8.40507C10.2691 8.93207 9.35394 9.51298 8.59916 10.3257L7.17854 10.257L6.44937 9.71516L4.76054 11.0401H3.91545C3.59601 11.4929 3.10001 12.0092 2.28053 12.551L14.4703 1.25887ZM12.5092 28.6724C12.8111 28.7964 13.2141 28.7654 13.415 28.6414C13.5282 28.5713 13.5565 28.7074 13.6131 28.8355C13.4554 28.9837 13.2936 29.1239 13.1643 29.163C13.0713 29.0983 12.9823 29.0323 12.9351 28.9662C12.7923 28.7667 12.6022 28.8112 12.5308 28.7452C12.4593 28.6791 12.1493 28.2923 12.3165 28.3813C12.462 28.4581 12.4984 28.4433 12.6494 28.3786C12.4728 28.5039 12.3596 28.6117 12.5092 28.6724ZM17.5258 28.6724C17.6687 28.6144 17.5717 28.5133 17.4099 28.3947C17.5285 28.4446 17.5703 28.45 17.7024 28.3813C17.8695 28.2923 17.5595 28.6791 17.4881 28.7452C17.4167 28.8112 17.2266 28.7667 17.0837 28.9662C17.0608 28.9972 17.0271 29.0296 16.9894 29.0619C16.8371 28.9527 16.6686 28.7802 16.5204 28.6414C16.546 28.6185 16.5756 28.6144 16.6201 28.6414C16.8209 28.7654 17.2239 28.7964 17.5258 28.6724ZM20.1662 29.473C20.2026 29.4582 20.2174 29.4393 20.2148 29.4164C20.2228 29.4218 20.2296 29.4285 20.2363 29.4353C20.3051 29.504 20.3239 29.5835 20.3873 29.6428C20.3145 29.7183 20.2255 29.7938 20.1298 29.8652C20.0544 29.8463 19.987 29.8329 19.9411 29.8248C19.8064 29.8019 19.6136 29.5997 19.4532 29.4501C19.4721 29.4339 19.4923 29.4312 19.5247 29.4501C19.6662 29.539 19.9506 29.5606 20.1662 29.473ZM23.6692 27.9176C23.6463 27.896 23.6275 27.8745 23.6113 27.8529C23.4522 27.6319 23.2406 27.6804 23.1611 27.6076C23.0816 27.5348 22.7514 27.2396 22.936 27.338C23.0641 27.4054 23.1005 27.396 23.1881 27.3502C23.273 27.3785 23.3552 27.4162 23.4145 27.4432C23.5196 27.4917 23.6612 27.5079 23.924 27.4917C23.9914 27.4876 24.0453 27.5011 24.0925 27.524C24.1302 27.5429 24.1625 27.5672 24.1935 27.5941L24.0749 27.7046L23.7622 27.9944C23.7285 27.9702 23.6962 27.9432 23.6692 27.9176ZM25.6748 26.0603C25.6398 26.032 25.6047 25.9996 25.5683 25.9659C25.598 25.8999 25.6128 25.8285 25.6721 25.8649C25.7126 25.8891 25.7678 25.908 25.8298 25.9161C25.8851 25.9242 25.9457 25.9242 26.0064 25.9161L25.7786 26.1263C25.7462 26.1129 25.7112 26.0899 25.6748 26.0603ZM10.3783 29.628C10.3257 29.597 10.2718 29.5633 10.2166 29.5269C10.3257 29.5202 10.4268 29.4932 10.4942 29.4514C10.5252 29.4326 10.5468 29.4353 10.5656 29.4514C10.5063 29.5067 10.443 29.57 10.3783 29.628ZM6.28493 28.0389C6.35367 28.0551 6.42511 28.0618 6.49519 28.0618C6.63671 28.0618 6.7715 28.0308 6.85641 27.9783C6.89011 27.958 6.91302 27.9607 6.93189 27.9783C6.84832 28.0564 6.75667 28.1467 6.66906 28.2236C6.63537 28.2532 6.60167 28.2802 6.56932 28.3031L6.28493 28.0389ZM7.25941 27.086C7.24324 27.0644 7.23111 27.0375 7.21898 27.0051C7.24863 26.9997 7.28233 26.9862 7.3295 26.9606C7.44272 26.9013 7.35646 26.993 7.25941 27.086ZM6.64885 27.4944C6.54776 27.6049 6.35098 27.7181 6.22697 27.8138C6.18654 27.8448 6.15419 27.8745 6.13532 27.9001L5.94932 27.7276C5.98302 27.7046 6.01267 27.675 6.04502 27.644C6.12589 27.5658 6.2135 27.4823 6.3658 27.4917C6.48037 27.4984 6.57337 27.4998 6.64885 27.4944ZM28.6414 23.4752L26.1749 25.7597L26.1466 25.7867C26.1223 25.7638 26.0886 25.7382 26.0495 25.7126C25.9579 25.6492 25.8433 25.5764 25.7934 25.5077C25.6883 25.3608 25.5481 25.3931 25.4956 25.3446C25.443 25.2961 25.2139 25.0117 25.3379 25.0764C25.4605 25.1411 25.478 25.1168 25.6357 25.0521C25.7934 24.9874 25.7058 25.0036 25.846 25.0359C25.9862 25.0683 26.1088 24.8243 25.7233 24.792C25.5266 24.7758 25.412 24.5372 25.2678 24.451C25.4012 24.4469 25.3217 24.451 25.443 24.451C25.5656 24.451 25.7934 24.3701 25.6357 24.3202C25.478 24.2717 25.2314 24.0439 25.3904 24.0439C25.5481 24.0439 25.6708 23.9469 25.443 23.8808C25.2192 23.8175 24.9955 23.0816 24.8378 23.0533V23.0506C24.8365 23.0506 24.8351 23.0519 24.8338 23.0519C24.8324 23.0519 24.8311 23.0506 24.8297 23.0506V23.0533C24.672 23.0802 24.4483 23.8162 24.2245 23.8808C23.9968 23.9455 24.1194 24.0439 24.2771 24.0439C24.4348 24.0439 24.1895 24.2717 24.0305 24.3202C23.8728 24.3688 24.1005 24.451 24.2232 24.451C24.3445 24.451 24.1315 24.5925 24.2663 24.5979C24.1208 24.6842 24.1383 24.7758 23.9415 24.7933C23.5547 24.8257 23.6787 25.0696 23.8189 25.0373C23.959 25.0049 23.8862 25.0589 24.0439 25.1235C24.203 25.1882 24.1962 25.2314 24.3202 25.1667C24.4429 25.102 24.2232 25.2961 24.172 25.3459C24.1194 25.3945 23.9779 25.3621 23.8728 25.509C23.7676 25.6559 23.3633 25.8177 23.521 25.8824C23.68 25.9471 23.8903 25.9309 23.9954 25.8662C24.0183 25.8514 24.0345 25.8541 24.048 25.8662C23.9307 25.9767 23.7879 26.1263 23.6881 26.1425C23.5399 26.1668 23.1005 26.2813 23.1005 26.4026C23.1005 26.5239 23.3121 26.4673 23.3983 26.5576C23.4684 26.6291 23.463 26.714 23.6045 26.7463C23.5924 26.7571 23.5789 26.7692 23.5655 26.7814C23.5466 26.7787 23.5277 26.776 23.5075 26.7746C23.211 26.7504 23.2379 26.6116 23.0182 26.4795C23.2218 26.4727 22.901 26.2584 23.0843 26.2584C23.2703 26.2584 23.614 26.1358 23.3754 26.0616C23.1368 25.9875 22.7662 25.6452 23.0048 25.6452C23.2433 25.6452 23.428 25.4982 23.0843 25.3999C22.746 25.3042 22.409 24.1935 22.1705 24.1531V24.1491C22.1678 24.1491 22.1651 24.1504 22.1637 24.1504C22.161 24.1504 22.1597 24.1491 22.157 24.1491V24.1531C21.9198 24.1949 21.5815 25.3042 21.2445 25.3999C20.9008 25.4982 21.0855 25.6452 21.324 25.6452C21.5626 25.6452 21.1919 25.9889 20.9534 26.0616C20.7148 26.1358 21.0598 26.2584 21.2445 26.2584C21.4265 26.2584 21.3065 26.2517 21.5087 26.2584C21.289 26.3892 21.1178 26.749 20.8199 26.7733C20.2377 26.8218 20.4223 27.1911 20.6339 27.1412C20.8455 27.0927 20.7135 27.0671 20.952 27.1655C21.1906 27.2639 21.2175 27.3003 21.4022 27.2019C21.5882 27.1035 21.2431 27.5335 21.1636 27.6063C21.0841 27.6804 20.8725 27.6305 20.7134 27.8516C20.5544 28.0726 19.9452 28.3179 20.1838 28.4163C20.4223 28.5147 20.7404 28.4904 20.8995 28.392C20.9884 28.3368 21.0113 28.4446 21.0558 28.5443C20.9197 28.671 20.7808 28.791 20.6744 28.8085C20.4884 28.8382 20.0058 28.9608 19.8428 29.105C19.7808 29.0579 19.7241 29.0107 19.6918 28.9649C19.5489 28.7667 19.3589 28.8099 19.2861 28.7438C19.2147 28.6778 18.9181 28.4123 19.0839 28.5012C19.2511 28.5888 19.243 28.5309 19.4573 28.4419C19.6716 28.3543 19.5718 28.2802 19.7619 28.3246C19.9519 28.3691 20.1191 28.0376 19.5948 27.9931C19.3279 27.9702 19.3521 27.8462 19.154 27.7289C19.3373 27.7235 19.0489 27.5308 19.2133 27.5308C19.3804 27.5308 19.6891 27.4202 19.4748 27.3542C19.2605 27.2882 18.9276 26.9795 19.1419 26.9795C19.3562 26.9795 19.5233 26.8474 19.2133 26.7585C18.9101 26.6722 18.6068 25.6748 18.3925 25.6371V25.6344C18.3911 25.6344 18.3884 25.6357 18.3871 25.6357C18.3844 25.6357 18.3831 25.6344 18.3804 25.6344V25.6371C18.1674 25.6735 17.8628 26.6709 17.5595 26.7585C17.2509 26.8461 17.4167 26.9795 17.631 26.9795C17.8453 26.9795 17.5124 27.2882 17.298 27.3542C17.0837 27.4202 17.3937 27.5308 17.5595 27.5308C17.724 27.5308 17.6148 27.5254 17.7967 27.5308C17.6 27.648 17.445 27.9715 17.1781 27.9944C17.073 28.0039 16.9948 28.0241 16.9395 28.051C16.9058 28.02 16.8762 27.9877 16.8533 27.9567C16.6511 27.6763 16.3829 27.7383 16.2818 27.6453C16.182 27.5523 15.7629 27.179 15.9974 27.303C16.2333 27.427 16.2211 27.3448 16.5244 27.2194C16.8263 27.0954 16.6861 26.9916 16.9544 27.0536C17.2226 27.1156 17.4584 26.6493 16.7185 26.5873C16.3424 26.5563 16.3775 26.3797 16.0985 26.2139C16.3559 26.2059 15.9502 25.9336 16.182 25.9336C16.4179 25.9336 16.8533 25.7786 16.5514 25.6842C16.2494 25.5912 15.779 25.1559 16.081 25.1559C16.3829 25.1559 16.6174 24.9699 16.182 24.8445C15.7534 24.7219 15.3262 23.3161 15.0243 23.2635V23.2582C15.0216 23.2582 15.0189 23.2608 15.0162 23.2608C15.0135 23.2608 15.0108 23.2582 15.0067 23.2582V23.2635C14.7062 23.3161 14.2776 24.7219 13.849 24.8445C13.4123 24.9685 13.6481 25.1559 13.95 25.1559C14.252 25.1559 13.7816 25.5912 13.4796 25.6842C13.1777 25.7772 13.6131 25.9336 13.849 25.9336C14.0808 25.9336 13.9271 25.9255 14.1846 25.9336C13.9069 26.0994 13.6886 26.5549 13.3125 26.5859C12.5739 26.6479 12.8098 27.1143 13.078 27.0523C13.3462 26.9903 13.1791 26.9593 13.481 27.0833C13.7829 27.2073 13.8166 27.2545 14.0511 27.1305C14.2857 27.0051 13.8503 27.5496 13.7492 27.644C13.6495 27.737 13.3799 27.675 13.1791 27.9553C13.1548 27.9877 13.1238 28.0214 13.0874 28.0551C13.0322 28.0254 12.9513 28.0025 12.8381 27.9931C12.5712 27.9702 12.4162 27.648 12.2194 27.5294C12.4014 27.524 12.2922 27.5294 12.4566 27.5294C12.6238 27.5294 12.9324 27.4189 12.7181 27.3529C12.5038 27.2868 12.1709 26.9782 12.3852 26.9782C12.5995 26.9782 12.7666 26.8461 12.4566 26.7571C12.1534 26.6709 11.8488 25.6735 11.6358 25.6357V25.6317C11.6331 25.6317 11.6318 25.633 11.6291 25.633C11.6277 25.633 11.625 25.6317 11.6223 25.6317V25.6357C11.4094 25.6721 11.1048 26.6695 10.8015 26.7571C10.4915 26.8447 10.6586 26.9782 10.8729 26.9782C11.0872 26.9782 10.753 27.2868 10.54 27.3529C10.3257 27.4189 10.6344 27.5294 10.8015 27.5294C10.9659 27.5294 10.6775 27.7222 10.8608 27.7276C10.6627 27.8448 10.6869 27.9702 10.4201 27.9917C9.89577 28.0362 10.0629 28.3664 10.2529 28.3233C10.443 28.2788 10.3432 28.3529 10.5576 28.4406C10.7719 28.5295 10.7638 28.5875 10.9309 28.4999C11.0967 28.4123 10.8002 28.6764 10.7287 28.7425C10.6573 28.8085 10.4672 28.764 10.323 28.9635C10.2422 29.0754 10.0319 29.1953 9.90251 29.2937C9.85938 29.256 9.81894 29.2196 9.78255 29.1819C9.8432 29.1239 9.86207 29.0484 9.92812 28.981C10.0562 28.8503 10.3621 28.9339 10.3621 28.756C10.3621 28.578 9.72325 28.4123 9.50624 28.3772C9.40381 28.3597 9.26903 28.2451 9.13829 28.1225C9.18142 28.0254 9.20298 27.9216 9.28924 27.9756C9.4429 28.0699 9.74885 28.0942 9.97933 27.9998C10.2098 27.9055 9.62216 27.6683 9.46851 27.4553C9.31485 27.2423 9.11133 27.2895 9.0345 27.2181C8.95768 27.1466 8.62611 26.7329 8.80403 26.8272C8.98329 26.9216 9.0089 26.8865 9.23803 26.7922C9.46851 26.6978 9.34046 26.7207 9.54533 26.7692C9.74885 26.8164 9.92812 26.4619 9.36607 26.4134C9.07898 26.3892 8.91455 26.0428 8.70294 25.9174C8.89837 25.9107 8.78111 25.9174 8.95768 25.9174C9.13694 25.9174 9.46851 25.7988 9.23803 25.7274C9.0089 25.6559 8.65037 25.3257 8.88085 25.3257C9.11133 25.3257 9.28924 25.1842 8.95768 25.0885C8.6315 24.9955 8.30668 23.9253 8.07755 23.8862V23.8822C8.07485 23.8822 8.0735 23.8835 8.07081 23.8835C8.06946 23.8835 8.06676 23.8822 8.06407 23.8822V23.8862C7.83494 23.9267 7.50876 24.9969 7.18393 25.0885C6.85237 25.1829 7.03028 25.3257 7.26076 25.3257C7.49124 25.3257 7.13272 25.6573 6.90359 25.7274C6.67311 25.7988 7.00602 25.9174 7.18393 25.9174C7.3605 25.9174 7.05185 26.125 7.24728 26.1304C7.11654 26.2086 7.07611 26.2881 6.99793 26.3447C6.89819 26.2449 6.56393 26.16 6.43724 26.1398C6.3658 26.129 6.27415 26.0495 6.18384 25.9646C6.2135 25.8986 6.22832 25.8271 6.28763 25.8635C6.39276 25.9282 6.60302 25.9444 6.76206 25.8797C6.91976 25.815 6.51541 25.6519 6.41028 25.5063C6.30515 25.3594 6.16497 25.3918 6.11241 25.3432C6.05984 25.2947 5.83206 25.0103 5.95471 25.075C6.07737 25.1397 6.09489 25.1155 6.25258 25.0508C6.41028 24.9861 6.32267 25.0022 6.46419 25.0346C6.60437 25.0669 6.72702 24.823 6.34154 24.7906C6.14476 24.7745 6.03019 24.5359 5.88597 24.4496C6.01941 24.4456 5.93989 24.4496 6.06119 24.4496C6.18384 24.4496 6.41163 24.3688 6.25393 24.3189C6.09624 24.2704 5.85093 24.0426 6.00863 24.0426C6.16632 24.0426 6.28897 23.9455 6.06119 23.8795C5.83745 23.8162 5.61371 23.0802 5.45602 23.0519V23.0492C5.45467 23.0492 5.45332 23.0506 5.45197 23.0506C5.45062 23.0506 5.44928 23.0492 5.44793 23.0492V23.0519C5.29023 23.0789 5.06649 23.8148 4.84275 23.8795C4.61497 23.9442 4.73762 24.0426 4.89532 24.0426C5.05301 24.0426 4.80771 24.2704 4.64867 24.3189C4.49097 24.3674 4.71875 24.4496 4.8414 24.4496C4.96271 24.4496 4.74975 24.5912 4.88454 24.5965C4.73897 24.6828 4.75649 24.7745 4.55971 24.792C4.17288 24.8243 4.29688 25.0683 4.43706 25.0359C4.57723 25.0036 4.50445 25.0575 4.66214 25.1222C4.81984 25.1869 4.81445 25.23 4.93845 25.1653C5.0611 25.1006 4.84141 25.2947 4.79019 25.3446C4.73762 25.3931 4.5961 25.3608 4.49097 25.5077C4.39932 25.6357 4.08123 25.7746 4.10549 25.8514C4.10819 25.8622 4.11762 25.8702 4.13514 25.8783C4.13649 25.8797 4.13919 25.8797 4.14053 25.881C4.29958 25.9457 4.50984 25.9296 4.61497 25.8649C4.63788 25.85 4.65406 25.8527 4.66754 25.8649C4.57723 25.9498 4.47345 26.0562 4.38449 26.1088C4.35753 26.125 4.33058 26.1371 4.30766 26.1412C4.29014 26.1439 4.26993 26.1479 4.24566 26.1533L3.58523 25.5414L0.958307 23.1045C0.665828 22.8336 0.665828 22.3942 0.958307 22.1233L4.52736 18.8171L5.33336 18.0704L1.35726 14.3881C1.06479 14.1172 1.06479 13.6778 1.35726 13.4055L1.35861 13.4042C2.31962 13.2936 2.85336 12.8206 4.20253 11.4633L5.35358 11.5105L6.53024 10.4672C7.08015 11.0482 8.0142 10.9417 8.0142 10.9417C5.82667 12.1386 5.51936 13.3125 5.51936 13.3125C5.99245 12.5308 7.02893 12.0793 7.02893 12.0793C6.87528 12.4823 7.08015 12.7788 7.08015 12.7788C7.41306 12.2693 8.52637 11.1546 10.4255 10.509C10.4255 10.509 10.2341 10.8649 10.6559 11.3986C11.0778 11.9323 10.8986 12.2989 10.0157 12.9756C10.9942 12.9809 11.6466 12.3232 11.6466 12.3232C11.6466 12.3232 12.3434 12.8569 12.9836 12.8394C12.1709 12.5726 12.0819 11.8676 12.0819 11.8676C11.4741 11.4646 11.3393 10.8608 11.3393 10.8608C12.4337 10.8662 13.1683 11.4471 13.1683 11.4471C13.7762 10.8608 13.1804 10.7543 13.1804 10.3096C13.1804 9.86477 13.9541 9.50894 14.345 9.3755C14.7358 9.24207 15.1321 9.20703 15.1766 8.60859L15.0553 6.8308C15.0553 6.8308 15.2534 6.72432 15.4583 6.47497C15.9381 7.71902 16.6093 8.79863 18.3561 9.7529C18.3561 9.7529 16.5581 8.27163 16.6417 7.56537C16.6417 7.56537 17.9976 8.7865 18.4963 9.11268C18.995 9.43885 18.6364 10.0198 18.3871 10.381C18.1377 10.7422 18.1445 11.2288 18.4963 11.1964H19.4371L18.4774 12.5955C18.6432 12.3704 19.1621 12.1183 19.4559 12.1089C19.7498 12.0995 19.7053 12.2073 19.4465 12.3609C19.1877 12.5146 19.1392 12.7545 19.5651 13.1103C19.5651 13.1103 20.3549 12.4108 20.5477 12.2208C20.7391 12.0307 21.1016 11.7585 21.165 11.8178C21.2283 11.8771 21.1138 11.9863 21.1138 11.9863L20.142 12.8165L22.2405 12.4971L21.5235 13.0659L22.3174 12.9944C22.3174 12.9944 22.56 12.6157 23.5331 12.5079L24.7098 11.6668C25.0171 12.6858 26.0401 12.7451 26.0401 12.7451C26.0401 12.7451 25.0804 12.0456 25.0548 11.3703L26.2962 12.3299L27.4607 12.3421L27.5335 12.3825L29.039 13.7762C29.3315 14.0471 29.3315 14.4865 29.039 14.7574L25.4699 18.0636L24.6639 18.8103L28.6387 22.4926C28.9339 22.7648 28.9339 23.2042 28.6414 23.4752Z"
        fill="black" />
    <path
        d="M13.3543 16.1187C13.3961 16.2387 13.5174 16.3155 13.6468 16.3155C13.6778 16.3155 13.7101 16.3114 13.7425 16.302C13.9042 16.2535 13.9918 16.0931 13.9393 15.9435C13.7681 15.4542 13.4446 15.0485 13.0066 14.7722C12.6022 14.5161 12.1211 14.3813 11.6183 14.3813C11.1156 14.3813 10.6344 14.5161 10.2301 14.7722C9.79201 15.0485 9.46853 15.4542 9.29735 15.9435C9.24479 16.0931 9.33374 16.2535 9.49414 16.302C9.65588 16.3505 9.82974 16.2683 9.88096 16.1187C10.1829 15.2574 10.9767 14.9501 11.617 14.9501C12.2572 14.9501 13.0524 15.2561 13.3543 16.1187Z"
        fill="black" />
    <path
        d="M19.7703 14.7709C19.3659 14.5148 18.8847 14.38 18.382 14.38C17.8792 14.38 17.3981 14.5148 16.9937 14.7709C16.5557 15.0472 16.2322 15.4529 16.061 15.9421C16.0085 16.0917 16.0974 16.2521 16.2578 16.3006C16.4195 16.3492 16.5934 16.267 16.6446 16.1173C16.9465 15.2561 17.7404 14.9488 18.3806 14.9488C19.0222 14.9488 19.8147 15.2561 20.1166 16.1173C20.1584 16.2373 20.2797 16.3141 20.4091 16.3141C20.4401 16.3141 20.4725 16.3101 20.5048 16.3006C20.6666 16.2521 20.7542 16.0917 20.7016 15.9421C20.5318 15.4529 20.2096 15.0472 19.7703 14.7709Z"
        fill="black" />
    <path
        d="M17.3004 19.1864H12.6989C12.614 19.1864 12.5452 19.2591 12.5479 19.3481C12.6652 23.5506 17.3341 23.5506 17.4513 19.3481C17.454 19.2591 17.3853 19.1864 17.3004 19.1864Z"
        fill="black" />
</svg>
