<svg width="28" height="28" viewBox="0 0 28 28" fill="none" xmlns="http://www.w3.org/2000/svg">
<path d="M25.0319 11.8464C25.1755 12.6152 25.2536 13.419 25.2536 14.2579C25.2536 20.8192 20.8623 25.4847 14.2298 25.4847C12.7215 25.4852 11.2278 25.1884 9.83425 24.6114C8.44066 24.0344 7.17441 23.1885 6.10787 22.122C5.04133 21.0554 4.19539 19.7892 3.6184 18.3956C3.0414 17.002 2.74466 15.5084 2.74512 14C2.74466 12.4917 3.0414 10.9981 3.6184 9.60451C4.19539 8.21092 5.04133 6.94468 6.10787 5.87814C7.17441 4.8116 8.44066 3.96566 9.83425 3.38866C11.2278 2.81167 12.7215 2.51492 14.2298 2.51538C17.3308 2.51538 19.922 3.65638 21.91 5.50905L18.6724 8.74655V8.73838C17.4673 7.59038 15.9378 7.00121 14.2298 7.00121C10.4405 7.00121 7.36045 10.2025 7.36045 13.993C7.36045 17.7824 10.4405 20.9907 14.2298 20.9907C17.6679 20.9907 20.0083 19.0249 20.489 16.3252H14.2298V11.8464H25.0331H25.0319Z" fill="white"/>
</svg>
