<svg fill="none" height="21" viewBox="0 0 28 21" width="28" xmlns="http://www.w3.org/2000/svg">
    <path
        d="M27.4821 6.87463L24.1524 3.79017H23.3938L23.0215 4.13484L26.7312 7.57279C27.0041 7.82563 27.0041 8.23572 26.7312 8.48856L24.4291 10.6208L24.4027 10.6459C24.3801 10.6245 24.3486 10.6006 24.3134 10.5767C24.2279 10.5164 24.1197 10.4497 24.0744 10.3855C23.9763 10.2484 23.8442 10.2786 23.7964 10.2333C23.7461 10.188 23.5335 9.92261 23.648 9.98299C23.7624 10.0434 23.7788 10.0207 23.9272 9.96035C24.0744 9.89997 23.9926 9.91506 24.1235 9.94525C24.2543 9.97544 24.3687 9.74776 24.009 9.71757C23.8253 9.70247 23.7184 9.47982 23.5825 9.39931C23.7083 9.39428 23.6329 9.39931 23.7461 9.39931C23.8618 9.39931 24.0744 9.32258 23.9272 9.27729C23.7788 9.232 23.5498 9.01941 23.697 9.01941C23.8442 9.01941 23.9599 8.92758 23.7461 8.8672C23.5373 8.80808 23.3284 8.12125 23.1813 8.09609V8.09357H23.1725V8.09609C23.0253 8.12125 22.8165 8.80808 22.6076 8.8672C22.395 8.92758 22.5095 9.01941 22.6567 9.01941C22.8051 9.01941 22.5749 9.232 22.4278 9.27729C22.2806 9.32258 22.4932 9.39931 22.6076 9.39931C22.7209 9.39931 22.5234 9.53139 22.6491 9.53517C22.512 9.61693 22.5296 9.70247 22.346 9.71757C21.985 9.74776 22.1007 9.97544 22.2315 9.94525C22.3623 9.91506 22.2932 9.96538 22.4403 10.0258C22.5888 10.0874 22.5825 10.1277 22.6982 10.0673C22.8127 10.0056 22.6076 10.188 22.5586 10.2333C22.5095 10.2786 22.3787 10.2484 22.2806 10.3855C22.1825 10.5226 21.8051 10.6736 21.9523 10.7352C22.1007 10.7956 22.2969 10.7805 22.395 10.7201C22.4164 10.7063 22.4315 10.7088 22.4428 10.7201C22.3334 10.8233 22.2013 10.9617 22.1082 10.9768C21.9686 11.0007 21.5585 11.1063 21.5585 11.2208C21.5585 11.334 21.756 11.2812 21.8378 11.3642C21.9019 11.4309 21.8982 11.5101 22.029 11.5403C22.0177 11.5516 22.0051 11.5617 21.9925 11.573C21.9749 11.5705 21.9573 11.568 21.9384 11.5667C21.6617 11.5441 21.6868 11.4145 21.4818 11.2925C21.6717 11.2862 21.3723 11.0862 21.5434 11.0862C21.7158 11.0862 22.0365 10.9717 21.8151 10.9025C21.5925 10.8334 21.2465 10.5138 21.4692 10.5138C21.6906 10.5138 21.8642 10.3755 21.5434 10.2849C21.2277 10.1943 20.9119 9.15904 20.6905 9.12005V9.11627C20.688 9.11627 20.6855 9.11879 20.6843 9.11879C20.6817 9.11879 20.6792 9.11627 20.678 9.11627V9.12005C20.4553 9.15904 20.1408 10.1943 19.8251 10.2849C19.5043 10.3755 19.6766 10.5138 19.8993 10.5138C20.122 10.5138 19.776 10.8334 19.5534 10.9025C19.3307 10.9717 19.6527 11.0862 19.8251 11.0862C19.9962 11.0862 19.8829 11.0799 20.0716 11.0862C19.8679 11.2082 19.7068 11.5441 19.4301 11.5667C18.8854 11.6133 19.059 11.9567 19.2565 11.9102C19.454 11.8649 19.3307 11.8422 19.5534 11.9328C19.776 12.0246 19.7999 12.0586 19.9735 11.968C20.1471 11.8762 19.8251 12.2775 19.7509 12.3454C19.6766 12.4146 19.4791 12.368 19.3307 12.5743C19.1823 12.7806 18.6137 13.0096 18.8363 13.1014C19.059 13.1932 19.3559 13.1693 19.5043 13.0788C19.5873 13.0272 19.6087 13.1266 19.6502 13.2209C19.5232 13.3392 19.3936 13.4511 19.2942 13.4675C19.1206 13.4964 18.6703 13.6096 18.5181 13.7455C18.459 13.7015 18.4074 13.6574 18.3759 13.6134C18.2426 13.4285 18.0652 13.4687 17.9986 13.4071C17.9319 13.3455 17.6551 13.0989 17.8099 13.1807C17.9659 13.2637 17.9583 13.2083 18.1583 13.1266C18.3583 13.0436 18.2652 12.9756 18.4426 13.0171C18.62 13.0574 18.776 12.7492 18.2866 12.7077C18.0388 12.6863 18.0615 12.5706 17.8765 12.4611C18.0476 12.4561 17.7784 12.2762 17.9319 12.2762C18.0879 12.2762 18.3759 12.1731 18.1759 12.1114C17.9759 12.0498 17.6652 11.7617 17.8652 11.7617C18.0652 11.7617 18.2212 11.6372 17.9319 11.5554C17.6489 11.4749 17.3646 10.544 17.1658 10.5088V10.5063C17.1645 10.5063 17.162 10.5076 17.1608 10.5076C17.1583 10.5076 17.1557 10.5063 17.1545 10.5063V10.5088C16.9557 10.544 16.6714 11.4749 16.3884 11.5554C16.0991 11.6372 16.2551 11.7617 16.4551 11.7617C16.6551 11.7617 16.3444 12.0498 16.1444 12.1114C15.9443 12.1731 16.2324 12.2762 16.3884 12.2762C16.5419 12.2762 16.44 12.2699 16.6098 12.2762C16.4261 12.3857 16.2815 12.6863 16.0324 12.7077C15.9343 12.7165 15.8613 12.7354 15.8097 12.7605C15.7783 12.7303 15.7506 12.7014 15.7305 12.6725C15.5418 12.4108 15.2915 12.4687 15.1971 12.3819C15.104 12.2951 14.7128 11.9466 14.9317 12.0624C15.1518 12.1793 15.1405 12.1014 15.4236 11.9856C15.7053 11.8699 15.5745 11.773 15.8248 11.8309C16.0739 11.8888 16.2941 11.4535 15.6047 11.3957C15.2537 11.3655 15.2864 11.2019 15.0261 11.0472C15.2663 11.0397 14.8877 10.7856 15.104 10.7856C15.3229 10.7856 15.7305 10.6409 15.4487 10.5541C15.1669 10.466 14.7279 10.061 15.0097 10.061C15.2915 10.061 15.5104 9.88613 15.104 9.7704C14.704 9.65593 14.3053 8.3439 14.0235 8.29484V8.28981C14.021 8.28981 14.0184 8.29232 14.0159 8.29232C14.0134 8.29232 14.0109 8.28981 14.0071 8.28981V8.29484C13.7266 8.3439 13.3266 9.65593 12.9266 9.7704C12.5202 9.88613 12.7391 10.061 13.0222 10.061C13.3039 10.061 12.8649 10.466 12.5831 10.5541C12.3014 10.6409 12.7077 10.7856 12.9266 10.7856C13.1429 10.7856 13.0008 10.7793 13.2398 10.7856C12.9806 10.9403 12.7769 11.3655 12.4259 11.3957C11.7365 11.4535 11.9567 11.8888 12.207 11.8309C12.4573 11.773 12.3014 11.7441 12.5831 11.8598C12.8649 11.9756 12.8964 12.0196 13.1152 11.9039C13.3341 11.7869 12.9266 12.2951 12.8335 12.3819C12.7391 12.4687 12.4888 12.4108 12.3014 12.6725C12.2787 12.7027 12.2498 12.7341 12.2146 12.7655C12.163 12.7379 12.0875 12.7165 11.9831 12.7077C11.7328 12.6863 11.5894 12.3857 11.4057 12.2762C11.5755 12.2712 11.4736 12.2762 11.6271 12.2762C11.7831 12.2762 12.0712 12.1731 11.8711 12.1114C11.6711 12.0498 11.3604 11.7617 11.5604 11.7617C11.7604 11.7617 11.9164 11.6372 11.6271 11.5554C11.3441 11.4749 11.061 10.544 10.861 10.5088V10.5063C10.8598 10.5063 10.8573 10.5076 10.856 10.5076C10.8535 10.5076 10.851 10.5063 10.8497 10.5063V10.5088C10.6497 10.544 10.3667 11.4749 10.0836 11.5554C9.7943 11.6372 9.95028 11.7617 10.1503 11.7617C10.3503 11.7617 10.0396 12.0498 9.83958 12.1114C9.63957 12.1731 9.92764 12.2762 10.0836 12.2762C10.2371 12.2762 9.96789 12.4561 10.139 12.4611C9.95405 12.5706 9.97795 12.6863 9.72888 12.7077C9.23954 12.7492 9.39553 13.0574 9.5729 13.0171C9.75027 12.9756 9.65718 13.0448 9.85719 13.1266C10.0572 13.2083 10.0497 13.2637 10.2056 13.1807C10.3604 13.0989 10.0836 13.3455 10.0169 13.4071C9.95028 13.4687 9.77291 13.4285 9.63957 13.6134C9.56409 13.7191 9.36785 13.8298 9.24709 13.9216C9.20684 13.8876 9.1691 13.8524 9.13514 13.8172C9.193 13.7631 9.21061 13.6926 9.27225 13.631C9.3905 13.509 9.67605 13.5857 9.67605 13.4209C9.67605 13.2549 9.08104 13.1002 8.87852 13.0675C8.78166 13.0511 8.65712 12.9442 8.5351 12.8297C8.57535 12.7391 8.59548 12.6423 8.67599 12.6926C8.81939 12.7806 9.10494 12.802 9.32005 12.714C9.5339 12.6259 8.98544 12.4045 8.84204 12.2058C8.69989 12.007 8.50868 12.051 8.43698 11.9856C8.36528 11.919 8.05583 11.5328 8.22313 11.6208C8.38918 11.7089 8.41308 11.6762 8.62819 11.5881C8.84204 11.5001 8.72379 11.5214 8.91374 11.5655C9.10495 11.6095 9.27225 11.2787 8.74769 11.2346C8.47975 11.212 8.32502 10.8887 8.12753 10.7705C8.30993 10.7654 8.20175 10.7705 8.36528 10.7705C8.53258 10.7705 8.84204 10.6598 8.62819 10.5931C8.41308 10.5277 8.07973 10.2182 8.29483 10.2182C8.50868 10.2182 8.67599 10.0861 8.36528 9.99809C8.06212 9.91129 7.7577 8.91249 7.54385 8.87475V8.87098C7.54133 8.87098 7.54007 8.87349 7.53756 8.87349C7.5363 8.87349 7.53378 8.87098 7.53127 8.87098V8.87475C7.31742 8.91249 7.01425 9.91129 6.70983 9.99809C6.39912 10.0861 6.56643 10.2182 6.78154 10.2182C6.99539 10.2182 6.66203 10.5277 6.44693 10.5931C6.23308 10.6598 6.54253 10.7705 6.70983 10.7705C6.87337 10.7705 6.5853 10.9642 6.76896 10.9692C6.64694 11.0422 6.6092 11.1177 6.53624 11.1692C6.44441 11.0761 6.13118 10.9969 6.0142 10.9768C5.94752 10.9667 5.86198 10.8925 5.7777 10.8145C5.80538 10.7516 5.81922 10.6849 5.87456 10.7201C5.97268 10.7805 6.16892 10.7956 6.31736 10.7352C6.46454 10.6736 6.08716 10.5226 5.98904 10.3855C5.89092 10.2484 5.76009 10.2786 5.70977 10.2333C5.66197 10.188 5.44812 9.92261 5.5626 9.98299C5.67707 10.0434 5.69468 10.0207 5.84186 9.96035C5.98904 9.89997 5.90727 9.91506 6.0381 9.94525C6.16892 9.97544 6.28339 9.74776 5.92362 9.71757C5.73996 9.70247 5.63304 9.47982 5.49844 9.39931C5.62298 9.39428 5.54876 9.39931 5.66197 9.39931C5.77644 9.39931 5.98904 9.32258 5.84186 9.27729C5.69468 9.232 5.46448 9.01941 5.61166 9.01941C5.76009 9.01941 5.87456 8.92758 5.66197 8.8672C5.4519 8.80808 5.24308 8.12125 5.0959 8.09609V8.09357H5.08835V8.09609C4.94118 8.12125 4.73236 8.80808 4.52228 8.8672C4.30969 8.92758 4.42416 9.01941 4.57134 9.01941C4.71978 9.01941 4.48958 9.232 4.3424 9.27729C4.19522 9.32258 4.40781 9.39931 4.52228 9.39931C4.6355 9.39931 4.438 9.53139 4.56379 9.53517C4.42668 9.61693 4.44429 9.70247 4.26063 9.71757C3.8996 9.74776 4.01533 9.97544 4.14616 9.94525C4.27698 9.91506 4.2078 9.96538 4.35498 10.0258C4.50341 10.0874 4.49838 10.1277 4.61285 10.0673C4.72733 10.0056 4.52228 10.188 4.47448 10.2333C4.42416 10.2786 4.29334 10.2484 4.19522 10.3855C4.10968 10.505 3.81155 10.6346 3.83419 10.7063C3.83796 10.7164 3.84677 10.7252 3.86187 10.7315C3.86312 10.7327 3.86564 10.734 3.8669 10.7352C4.01533 10.7956 4.21157 10.7805 4.30969 10.7201C4.33108 10.7063 4.34617 10.7088 4.35875 10.7201C4.27447 10.7981 4.17761 10.8975 4.09458 10.9478C4.06817 10.9629 4.04427 10.9742 4.02288 10.9768C4.00653 10.9805 3.98766 10.9843 3.96502 10.9881L3.34863 10.417L0.894393 8.14389C0.621421 7.89104 0.621421 7.48096 0.894393 7.22685L4.22541 4.14113L4.60405 3.79017H3.84677L0.517012 6.87463C-0.172337 7.5124 -0.172337 8.54894 0.517012 9.18672L5.26069 13.5819L5.42045 13.7304L5.45944 13.7656L12.7504 20.5207C13.4411 21.1598 14.5581 21.1598 15.2474 20.5207L24.4191 12.0246L25.2028 11.2988L27.4821 9.18672C28.1715 8.54894 28.1715 7.5124 27.4821 6.87463ZM5.72487 12.6184L5.55127 12.4574C5.58146 12.436 5.6104 12.4083 5.64059 12.3794C5.71606 12.3064 5.79783 12.2284 5.93998 12.2372C6.04816 12.2448 6.1337 12.2448 6.2054 12.2397C6.1098 12.3429 5.9274 12.4485 5.81167 12.5379C5.77393 12.5668 5.74248 12.5945 5.72487 12.6184ZM6.22427 12.9215C6.19282 12.9479 6.16137 12.9731 6.13118 12.9945L5.86576 12.7479C5.92991 12.763 5.99658 12.7706 6.062 12.7706C6.19408 12.7706 6.31862 12.7416 6.39912 12.6926C6.43057 12.6725 6.45321 12.6762 6.47083 12.6926C6.39283 12.7643 6.30729 12.8498 6.22427 12.9215ZM6.77399 11.8586C6.76015 11.8384 6.74883 11.8133 6.73625 11.7831C6.76393 11.7793 6.79537 11.7655 6.84066 11.7416C6.94507 11.6862 6.86582 11.7718 6.77399 11.8586ZM9.68611 14.231C9.63705 14.2021 9.58674 14.1707 9.53642 14.1367C9.63831 14.1304 9.7314 14.1053 9.79429 14.0663C9.82448 14.0486 9.84461 14.0512 9.86097 14.0663C9.80562 14.1178 9.74649 14.177 9.68611 14.231ZM12.285 13.7971C12.1995 13.7367 12.1152 13.6738 12.0712 13.6134C11.9378 13.4285 11.7604 13.4687 11.6938 13.4071C11.6271 13.3455 11.339 12.9857 11.4938 13.0687C11.6296 13.1404 11.6636 13.1253 11.8045 13.0649C11.6938 13.1442 11.6095 13.2159 11.6095 13.2712C11.6095 13.2977 11.6284 13.3203 11.6737 13.3392C11.9567 13.4562 12.3316 13.426 12.5202 13.3102C12.6247 13.2448 12.6523 13.3719 12.7052 13.4914C12.558 13.6297 12.407 13.7606 12.285 13.7971ZM16.3217 13.4071C16.2551 13.4687 16.0777 13.4285 15.9443 13.6134C15.923 13.6436 15.8915 13.6738 15.8563 13.7027C15.7141 13.6008 15.5569 13.4411 15.4173 13.3115C15.4412 13.2901 15.4701 13.2851 15.5104 13.3102C15.699 13.426 16.0739 13.4562 16.3569 13.3392C16.489 13.2851 16.3997 13.192 16.2488 13.0813C16.3595 13.1278 16.3985 13.1329 16.5217 13.0687C16.6777 12.9857 16.3884 13.3455 16.3217 13.4071ZM18.786 14.4537C18.7156 14.4361 18.6539 14.4235 18.6099 14.416C18.4841 14.3958 18.3042 14.2059 18.1545 14.0663C18.1709 14.0512 18.191 14.0486 18.2212 14.0663C18.3533 14.148 18.62 14.1694 18.82 14.0864C18.8552 14.0725 18.8678 14.0549 18.8653 14.0335C18.8728 14.0398 18.8791 14.0449 18.8854 14.0512C18.9496 14.1166 18.9684 14.1895 19.0275 14.2461C18.9584 14.3153 18.8753 14.387 18.786 14.4537ZM22.4693 12.4372L22.1774 12.7077C22.146 12.6838 22.1158 12.6599 22.0906 12.6347C22.0692 12.6146 22.0516 12.5945 22.0365 12.5743C21.8894 12.368 21.6906 12.4146 21.6164 12.3454C21.5434 12.2775 21.234 12.002 21.4076 12.0938C21.5271 12.1567 21.5598 12.1466 21.6428 12.1051C21.7221 12.1303 21.7988 12.1668 21.8541 12.1919C21.9523 12.2372 22.0831 12.2523 22.3296 12.2372C22.3913 12.2334 22.4428 12.246 22.4869 12.2687C22.5221 12.2863 22.5523 12.3089 22.5812 12.3341L22.4693 12.4372ZM24.0593 10.9642C24.0291 10.9516 23.9964 10.929 23.9624 10.9013C23.9297 10.8749 23.8958 10.8447 23.8631 10.8145C23.8907 10.7516 23.9046 10.6849 23.9599 10.7201C23.9977 10.7428 24.0492 10.7591 24.1071 10.7667C24.1587 10.7742 24.2153 10.7755 24.2719 10.7679L24.0593 10.9642Z"
        fill="white" />
    <path
        d="M12.4637 1.62274C12.5027 1.73469 12.6159 1.8064 12.7367 1.8064C12.7656 1.8064 12.7958 1.80262 12.826 1.79382C12.9769 1.74853 13.0587 1.59884 13.0096 1.45921C12.8499 1.00258 12.548 0.623937 12.1391 0.36606C11.7605 0.125794 11.3127 0 10.8435 0C10.3742 0 9.92516 0.125794 9.54778 0.364802C9.13895 0.622679 8.83705 1.00132 8.67729 1.45795C8.62823 1.59758 8.71126 1.74727 8.86095 1.79256C9.0119 1.83785 9.17418 1.76111 9.22198 1.62148C9.50376 0.817659 10.2447 0.530849 10.8422 0.530849C11.4397 0.530849 12.1819 0.817659 12.4637 1.62274Z"
        fill="white" />
    <path
        d="M18.4516 0.364802C18.0742 0.125794 17.6251 0 17.1559 0C16.6867 0 16.2376 0.125794 15.8602 0.364802C15.4514 0.622679 15.1495 1.00132 14.9897 1.45795C14.9407 1.59758 15.0237 1.74727 15.1734 1.79256C15.3243 1.83785 15.4866 1.76111 15.5344 1.62148C15.8162 0.817659 16.5571 0.530849 17.1546 0.530849C17.7534 0.530849 18.4931 0.817659 18.7749 1.62148C18.8139 1.73344 18.9271 1.80514 19.0478 1.80514C19.0768 1.80514 19.107 1.80137 19.1371 1.79256C19.2881 1.74727 19.3699 1.59758 19.3208 1.45795C19.1623 1.00132 18.8604 0.622679 18.4516 0.364802Z"
        fill="white" />
    <path
        d="M16.1455 4.48581H11.8522C11.7729 4.48581 11.7088 4.55374 11.7113 4.63676C11.8207 8.55901 16.1782 8.55901 16.2877 4.63676C16.2889 4.55374 16.2248 4.48581 16.1455 4.48581Z"
        fill="white" />
</svg>
