<svg fill="none" height="148" viewBox="0 0 120 148" width="120" xmlns="http://www.w3.org/2000/svg">
    <path
        d="M16.502 51.2606C16.502 51.2606 19.0089 50.5004 20.0818 49.3413C21.1547 48.1822 22.7936 47.422 22.7936 47.422C20.0333 47.7023 18.2433 50.2147 16.502 51.2606Z"
        fill="white" />
    <path
        d="M39.8199 45.5135C38.0354 45.9771 36.5097 47.3034 35.8896 47.9018C37.0865 46.8829 40.3375 45.6213 40.3375 45.6213L39.8199 45.5135Z"
        fill="white" />
    <path
        d="M35.5986 48.1983C35.5986 48.1983 35.7011 48.0851 35.8898 47.9018C35.7765 47.9988 35.6741 48.1013 35.5986 48.1983Z"
        fill="white" />
    <path
        d="M65.532 39.5237L64.8149 39.0008C64.8149 39.0008 61.4346 38.1004 60.3887 37.2486C60.3887 37.2486 62.8956 40.2354 65.532 39.5237Z"
        fill="white" />
    <path
        d="M66.0167 37.502C66.9871 39.8365 66.8631 43.2707 69.0897 44.7156C69.0897 44.7156 69.0142 43.0066 69.397 42.6777C69.7798 42.3434 70.8796 43.9554 71.0845 45.3087C71.0845 41.0872 67.6071 40.7799 67.1165 38.1274C66.6313 35.4749 66.1676 34.3104 62.2266 34.0031C62.232 34.0031 65.0462 35.1676 66.0167 37.502Z"
        fill="white" />
    <path
        d="M111.159 53.4873L114.232 53.5843C110.571 51.9507 110.911 53.3309 106.813 50.3603C106.808 50.3603 108.754 52.6139 111.159 53.4873Z"
        fill="white" />
    <path
        d="M59.7993 45.5135C58.624 47.6592 54.0953 47.8479 55.2976 50.1716C56.4998 52.4952 61.2334 54.2474 61.2334 54.2474H80.1408C73.8868 49.3898 67.0506 50.3549 64.4412 48.8561C61.8318 47.3573 64.9858 46.678 64.7108 45.3086C64.1717 42.6669 54.5967 43.4648 54.5967 43.4648C58.8612 43.8044 60.2037 44.7695 59.7993 45.5135Z"
        fill="white" />
    <path
        d="M103.513 73.764L117.784 60.5445C120.739 57.8057 120.739 53.3687 117.784 50.6299L65.3482 2.05409C62.3937 -0.684698 57.6009 -0.684698 54.6464 2.05409L2.21583 50.6299C-0.738611 53.3687 -0.738611 57.8057 2.21583 60.5445L16.4867 73.764L2.21583 86.9836C-0.738611 89.7223 -0.738611 94.1594 2.21583 96.8982L22.5465 115.73L23.2312 116.366L23.3983 116.517L54.6518 145.469C57.6063 148.207 62.3991 148.207 65.3536 145.469L104.662 109.05L108.015 105.945L117.784 96.8928C120.739 94.154 120.739 89.717 117.784 86.9782L103.513 73.764ZM57.8812 5.03549C59.0511 3.95184 60.9489 3.95184 62.1188 5.03549L108.403 47.9127L107.498 47.7994C107.498 47.7994 103.303 43.7721 98.645 42.3003C97.5721 43.2006 93.8359 46.6619 93.8359 46.6619C90.5095 41.2544 87.2316 39.7394 84.7785 38.9792C82.3201 38.2191 80.2768 35.518 77.2037 34.7578C74.1306 33.9977 73.9258 32.8116 72.8044 31.2966C71.6776 29.7817 70.2974 29.3989 68.4051 28.45C66.5127 27.5011 65.1811 26.2665 61.0351 21.2688C56.2746 23.1881 49.1095 31.5123 45.093 33.6203C41.0765 35.7283 37.4158 38.0519 34.3966 41.3029L28.7142 41.0279L25.7975 38.8606L19.0421 44.1603H15.6618C14.384 45.9718 12.4 48.0367 9.12211 50.204L57.8812 5.03549ZM50.0368 114.69C51.2445 115.186 52.8565 115.062 53.6598 114.566C54.1127 114.285 54.2259 114.83 54.4523 115.342C53.8215 115.935 53.1746 116.496 52.657 116.652C52.285 116.393 51.9292 116.129 51.7405 115.865C51.169 115.067 50.4088 115.245 50.1231 114.981C49.8374 114.717 48.5974 113.169 49.2659 113.525C49.8481 113.832 49.9937 113.773 50.5975 113.514C49.8913 114.016 49.4384 114.447 50.0368 114.69ZM70.1033 114.69C70.6748 114.458 70.2866 114.053 69.6397 113.579C70.1141 113.778 70.2812 113.8 70.8096 113.525C71.4781 113.169 70.2381 114.717 69.9524 114.981C69.6666 115.245 68.9065 115.067 68.335 115.865C68.2433 115.989 68.1085 116.118 67.9576 116.248C67.3484 115.811 66.6745 115.121 66.0814 114.566C66.1838 114.474 66.3025 114.458 66.4804 114.566C67.2837 115.062 68.8957 115.186 70.1033 114.69ZM80.6649 117.892C80.8105 117.833 80.8698 117.757 80.859 117.666C80.8914 117.687 80.9183 117.714 80.9453 117.741C81.2202 118.016 81.2957 118.334 81.5491 118.571C81.258 118.873 80.9022 119.175 80.5194 119.461C80.2175 119.385 79.9479 119.331 79.7646 119.299C79.2254 119.207 78.4545 118.399 77.8129 117.8C77.8884 117.736 77.9693 117.725 78.0987 117.8C78.6647 118.156 79.8023 118.242 80.6649 117.892ZM94.677 111.67C94.5853 111.584 94.5098 111.498 94.4451 111.412C93.809 110.527 92.9625 110.722 92.6444 110.43C92.3264 110.139 91.0055 108.959 91.7441 109.352C92.2563 109.622 92.4018 109.584 92.7523 109.401C93.0919 109.514 93.4208 109.665 93.658 109.773C94.0785 109.967 94.6446 110.031 95.6959 109.967C95.9655 109.951 96.1812 110.004 96.3698 110.096C96.5208 110.172 96.6502 110.269 96.7742 110.376L96.2998 110.819L95.049 111.978C94.9142 111.881 94.7848 111.773 94.677 111.67ZM102.699 104.241C102.559 104.128 102.419 103.999 102.273 103.864C102.392 103.6 102.451 103.314 102.688 103.459C102.85 103.556 103.071 103.632 103.319 103.664C103.54 103.697 103.783 103.697 104.026 103.664L103.114 104.505C102.985 104.451 102.845 104.36 102.699 104.241ZM41.5132 118.512C41.3029 118.388 41.0872 118.253 40.8662 118.108C41.3029 118.081 41.7073 117.973 41.9768 117.806C42.1008 117.73 42.1871 117.741 42.2626 117.806C42.0253 118.027 41.7719 118.28 41.5132 118.512ZM25.1397 112.156C25.4147 112.22 25.7004 112.247 25.9808 112.247C26.5469 112.247 27.086 112.123 27.4256 111.913C27.5604 111.832 27.6521 111.843 27.7276 111.913C27.3933 112.226 27.0267 112.587 26.6763 112.894C26.5415 113.013 26.4067 113.121 26.2773 113.212L25.1397 112.156ZM29.0376 108.344C28.973 108.258 28.9244 108.15 28.8759 108.02C28.9945 107.999 29.1293 107.945 29.318 107.843C29.7709 107.605 29.4258 107.972 29.0376 108.344ZM26.5954 109.978C26.191 110.42 25.4039 110.872 24.9079 111.255C24.7462 111.379 24.6168 111.498 24.5413 111.6L23.7973 110.91C23.9321 110.819 24.0507 110.7 24.1801 110.576C24.5035 110.263 24.854 109.929 25.4632 109.967C25.9215 109.994 26.2935 109.999 26.5954 109.978ZM114.566 93.9006L104.699 103.039L104.586 103.147C104.489 103.055 104.354 102.953 104.198 102.85C103.831 102.597 103.373 102.306 103.174 102.031C102.753 101.443 102.192 101.572 101.982 101.378C101.772 101.184 100.855 100.047 101.351 100.306C101.842 100.564 101.912 100.467 102.543 100.208C103.174 99.9497 102.823 100.014 103.384 100.144C103.945 100.273 104.435 99.2973 102.893 99.1679C102.106 99.1032 101.648 98.149 101.071 97.8039C101.605 97.7878 101.287 97.8039 101.772 97.8039C102.263 97.8039 103.174 97.4805 102.543 97.281C101.912 97.0869 100.926 96.1758 101.562 96.1758C102.192 96.1758 102.683 95.7876 101.772 95.5234C100.877 95.27 99.982 92.3264 99.3512 92.2131V92.2024C99.3459 92.2024 99.3405 92.2077 99.3351 92.2077C99.3297 92.2077 99.3243 92.2024 99.3189 92.2024V92.2131C98.6881 92.321 97.7932 95.2646 96.8982 95.5234C95.9871 95.7822 96.4777 96.1758 97.1085 96.1758C97.7392 96.1758 96.758 97.0869 96.1218 97.281C95.4911 97.4751 96.4022 97.8039 96.8928 97.8039C97.378 97.8039 96.5262 98.37 97.0653 98.3916C96.4831 98.7366 96.5532 99.1032 95.766 99.1733C94.2187 99.3027 94.7147 100.279 95.2754 100.149C95.8361 100.02 95.545 100.235 96.1758 100.494C96.8119 100.753 96.785 100.926 97.281 100.667C97.7716 100.408 96.8928 101.184 96.6879 101.384C96.4777 101.578 95.9116 101.448 95.4911 102.036C95.0705 102.624 93.4531 103.271 94.0839 103.53C94.7201 103.788 95.5611 103.724 95.9817 103.465C96.0733 103.406 96.138 103.416 96.1919 103.465C95.7229 103.907 95.1514 104.505 94.7524 104.57C94.1594 104.667 92.4018 105.125 92.4018 105.611C92.4018 106.096 93.2483 105.869 93.5933 106.231C93.8737 106.516 93.8521 106.856 94.4182 106.985C94.3697 107.028 94.3158 107.077 94.2618 107.126C94.1864 107.115 94.1109 107.104 94.03 107.099C92.8439 107.002 92.9517 106.446 92.073 105.918C92.8871 105.891 91.6039 105.034 92.3371 105.034C93.0811 105.034 94.4559 104.543 93.5017 104.247C92.5474 103.95 91.0648 102.581 92.019 102.581C92.9733 102.581 93.7119 101.993 92.3371 101.599C90.9839 101.217 89.6361 96.7742 88.6818 96.6124V96.5963C88.671 96.5963 88.6603 96.6017 88.6549 96.6017C88.6441 96.6017 88.6387 96.5963 88.6279 96.5963V96.6124C87.679 96.7796 86.3258 101.217 84.978 101.599C83.6032 101.993 84.3418 102.581 85.2961 102.581C86.2503 102.581 84.7677 103.955 83.8135 104.247C82.8592 104.543 84.2394 105.034 84.978 105.034C85.7058 105.034 85.226 105.007 86.0347 105.034C85.1559 105.557 84.4712 106.996 83.2797 107.093C80.9507 107.287 81.6893 108.764 82.5357 108.565C83.3822 108.371 82.8538 108.268 83.8081 108.662C84.7623 109.056 84.8702 109.201 85.6088 108.808C86.3528 108.414 84.9726 110.134 84.6545 110.425C84.3364 110.722 83.49 110.522 82.8538 111.406C82.2176 112.29 79.7808 113.272 80.735 113.665C81.6893 114.059 82.9616 113.962 83.5978 113.568C83.9536 113.347 84.0453 113.778 84.2232 114.177C83.6787 114.684 83.1234 115.164 82.6975 115.234C81.9535 115.353 80.0234 115.843 79.371 116.42C79.123 116.231 78.8966 116.043 78.7672 115.859C78.1957 115.067 77.4355 115.239 77.1444 114.975C76.8587 114.711 75.6726 113.649 76.3357 114.005C77.0042 114.355 76.9719 114.123 77.8291 113.768C78.6863 113.417 78.2874 113.121 79.0475 113.299C79.8077 113.477 80.4762 112.15 78.379 111.972C77.3115 111.881 77.4086 111.385 76.6161 110.916C77.3493 110.894 76.1955 110.123 76.8533 110.123C77.5218 110.123 78.7564 109.681 77.8992 109.417C77.042 109.153 75.7103 107.918 76.5675 107.918C77.4248 107.918 78.0933 107.39 76.8533 107.034C75.6402 106.689 74.4272 102.699 73.57 102.548V102.538C73.5646 102.538 73.5538 102.543 73.5484 102.543C73.5376 102.543 73.5322 102.538 73.5214 102.538V102.548C72.6696 102.694 71.4512 106.683 70.2381 107.034C69.0035 107.384 69.6666 107.918 70.5239 107.918C71.3811 107.918 70.0494 109.153 69.1922 109.417C68.335 109.681 69.575 110.123 70.2381 110.123C70.8959 110.123 70.4592 110.102 71.187 110.123C70.3999 110.592 69.7799 111.886 68.7124 111.978C68.2918 112.015 67.9792 112.096 67.7581 112.204C67.6233 112.08 67.5047 111.951 67.4131 111.827C66.6044 110.705 65.5315 110.953 65.1271 110.581C64.7282 110.209 63.0515 108.716 63.9896 109.212C64.9331 109.708 64.8845 109.379 66.0976 108.878C67.3052 108.382 66.7445 107.967 67.8174 108.215C68.8903 108.463 69.8338 106.597 66.8739 106.349C65.3698 106.225 65.5099 105.519 64.3939 104.856C65.4237 104.823 63.8009 103.734 64.7282 103.734C65.6717 103.734 67.4131 103.114 66.2054 102.737C64.9978 102.365 63.1162 100.624 64.3238 100.624C65.5315 100.624 66.4696 99.8796 64.7282 99.3782C63.0137 98.8876 61.3047 93.2645 60.097 93.0542V93.0326C60.0863 93.0326 60.0755 93.0434 60.0647 93.0434C60.0539 93.0434 60.0431 93.0326 60.027 93.0326V93.0542C58.8247 93.2645 57.1103 98.8876 55.3958 99.3782C53.649 99.8742 54.5925 100.624 55.8002 100.624C57.0078 100.624 55.1262 102.365 53.9186 102.737C52.7109 103.109 54.4523 103.734 55.3958 103.734C56.3231 103.734 55.7085 103.702 56.7383 103.734C55.6276 104.398 54.7542 106.22 53.2501 106.344C50.2956 106.592 51.2391 108.457 52.312 108.209C53.3848 107.961 52.7163 107.837 53.924 108.333C55.1316 108.829 55.2664 109.018 56.2045 108.522C57.1426 108.02 55.4012 110.199 54.9969 110.576C54.5979 110.948 53.5196 110.7 52.7163 111.821C52.6193 111.951 52.4953 112.086 52.3497 112.22C52.1287 112.102 51.8052 112.01 51.3523 111.972C50.2848 111.881 49.6648 110.592 48.8777 110.118C49.6055 110.096 49.1688 110.118 49.8266 110.118C50.4951 110.118 51.7297 109.676 50.8725 109.411C50.0153 109.147 48.6836 107.913 49.5408 107.913C50.3981 107.913 51.0666 107.384 49.8266 107.028C48.6135 106.683 47.3951 102.694 46.5433 102.543V102.527C46.5325 102.527 46.5271 102.532 46.5163 102.532C46.5109 102.532 46.5001 102.527 46.4894 102.527V102.543C45.6375 102.688 44.4191 106.678 43.206 107.028C41.966 107.379 42.6346 107.913 43.4918 107.913C44.349 107.913 43.0119 109.147 42.1601 109.411C41.3029 109.676 42.5375 110.118 43.206 110.118C43.8638 110.118 42.71 110.889 43.4433 110.91C42.6507 111.379 42.7478 111.881 41.6803 111.967C39.5831 112.145 40.2516 113.466 41.0118 113.293C41.7719 113.115 41.373 113.412 42.2302 113.762C43.0874 114.118 43.0551 114.35 43.7236 113.999C44.3867 113.649 43.2006 114.706 42.9149 114.97C42.6292 115.234 41.869 115.056 41.2921 115.854C40.9686 116.302 40.1276 116.781 39.61 117.175C39.4375 117.024 39.2758 116.878 39.1302 116.727C39.3728 116.496 39.4483 116.194 39.7125 115.924C40.2246 115.401 41.4485 115.735 41.4485 115.024C41.4485 114.312 38.893 113.649 38.025 113.509C37.6152 113.439 37.0761 112.98 36.5532 112.49C36.7257 112.102 36.8119 111.687 37.157 111.902C37.7716 112.28 38.9954 112.377 39.9173 111.999C40.8392 111.622 38.4886 110.673 37.874 109.821C37.2594 108.969 36.4453 109.158 36.138 108.872C35.8307 108.587 34.5044 106.931 35.2161 107.309C35.9331 107.686 36.0356 107.546 36.9521 107.169C37.874 106.791 37.3618 106.883 38.1813 107.077C38.9954 107.266 39.7125 105.848 37.4643 105.654C36.3159 105.557 35.6582 104.171 34.8118 103.67C35.5935 103.643 35.1245 103.67 35.8307 103.67C36.5478 103.67 37.874 103.195 36.9521 102.91C36.0356 102.624 34.6015 101.303 35.5234 101.303C36.4453 101.303 37.157 100.737 35.8307 100.354C34.526 99.982 33.2267 95.7013 32.3102 95.545V95.5288C32.2994 95.5288 32.294 95.5342 32.2832 95.5342C32.2778 95.5342 32.2671 95.5288 32.2563 95.5288V95.545C31.3397 95.7067 30.035 99.9874 28.7357 100.354C27.4095 100.731 28.1211 101.303 29.043 101.303C29.965 101.303 28.5309 102.629 27.6143 102.91C26.6924 103.195 28.0241 103.67 28.7357 103.67C29.442 103.67 28.2074 104.5 28.9891 104.522C28.4662 104.834 28.3044 105.152 27.9917 105.379C27.5928 104.98 26.2557 104.64 25.7489 104.559C25.4632 104.516 25.0966 104.198 24.7354 103.858C24.854 103.594 24.9133 103.308 25.1505 103.454C25.571 103.713 26.4121 103.778 27.0483 103.519C27.679 103.26 26.0616 102.608 25.6411 102.025C25.2206 101.438 24.6599 101.567 24.4496 101.373C24.2394 101.179 23.3282 100.041 23.8189 100.3C24.3095 100.559 24.3795 100.462 25.0103 100.203C25.6411 99.9443 25.2907 100.009 25.8568 100.138C26.4175 100.268 26.9081 99.2919 25.3662 99.1625C24.579 99.0978 24.1208 98.1436 23.5439 97.7985C24.0776 97.7824 23.7595 97.7985 24.2448 97.7985C24.7354 97.7985 25.6465 97.4751 25.0157 97.2756C24.3849 97.0815 23.4037 96.1704 24.0345 96.1704C24.6653 96.1704 25.1559 95.7822 24.2448 95.518C23.3498 95.2646 22.4548 92.321 21.8241 92.2077V92.197C21.8187 92.197 21.8133 92.2024 21.8079 92.2024C21.8025 92.2024 21.7971 92.197 21.7917 92.197V92.2077C21.1609 92.3156 20.266 95.2592 19.371 95.518C18.4599 95.7768 18.9505 96.1704 19.5813 96.1704C20.2121 96.1704 19.2308 97.0815 18.5947 97.2756C17.9639 97.4697 18.875 97.7985 19.3656 97.7985C19.8508 97.7985 18.999 98.3646 19.5381 98.3862C18.9559 98.7312 19.026 99.0979 18.2388 99.1679C16.6915 99.2973 17.1875 100.273 17.7482 100.144C18.3089 100.014 18.0178 100.23 18.6486 100.489C19.2794 100.748 19.2578 100.92 19.7538 100.661C20.2444 100.403 19.3656 101.179 19.1608 101.378C18.9505 101.572 18.3844 101.443 17.9639 102.031C17.5973 102.543 16.3249 103.098 16.422 103.406C16.4327 103.449 16.4705 103.481 16.5406 103.513C16.546 103.519 16.5567 103.519 16.5621 103.524C17.1983 103.783 18.0394 103.718 18.4599 103.459C18.5515 103.4 18.6162 103.411 18.6701 103.459C18.3089 103.799 17.8938 104.225 17.538 104.435C17.4301 104.5 17.3223 104.548 17.2307 104.565C17.1606 104.575 17.0797 104.592 16.9827 104.613L14.3409 102.166L3.83323 92.418C2.66331 91.3344 2.66331 89.5768 3.83323 88.4931L18.1094 75.2682L21.3335 72.2814L5.42906 57.5523C4.25914 56.4687 4.25914 54.7111 5.42906 53.6221L5.43445 53.6167C9.27846 53.1746 11.4134 51.2822 16.8101 45.8532L21.4143 46.0419L26.1209 41.869C28.3206 44.1927 32.0568 43.7667 32.0568 43.7667C23.3067 48.5542 22.0775 53.2501 22.0775 53.2501C23.9698 50.1231 28.1157 48.317 28.1157 48.317C27.5011 49.929 28.3206 51.1151 28.3206 51.1151C29.6523 49.0772 34.1055 44.6186 41.7019 42.0361C41.7019 42.0361 40.9363 43.4594 42.6238 45.5944C44.3113 47.7294 43.5942 49.1958 40.0629 51.9022C43.977 51.9238 46.5864 49.2928 46.5864 49.2928C46.5864 49.2928 49.3737 51.4278 51.9346 51.3577C48.6836 50.2902 48.3278 47.4706 48.3278 47.4706C45.8963 45.8586 45.3572 43.4433 45.3572 43.4433C49.7349 43.4648 52.6732 45.7885 52.6732 45.7885C55.1047 43.4433 52.7217 43.0173 52.7217 41.2382C52.7217 39.4591 55.8163 38.0358 57.3798 37.502C58.9433 36.9683 60.5283 36.8281 60.7063 34.4344L60.221 27.3232C60.221 27.3232 61.0136 26.8973 61.833 25.8999C63.7524 30.8761 66.4372 35.1945 73.4244 39.0116C73.4244 39.0116 66.2324 33.0865 66.5666 30.2615C66.5666 30.2615 71.9903 35.146 73.9851 36.4507C75.9799 37.7554 74.5458 40.0791 73.5484 41.5239C72.551 42.9688 72.5779 44.9151 73.9851 44.7857H77.7482L73.9096 50.3819C74.5727 49.4815 76.6484 48.4734 77.8237 48.4356C78.999 48.3979 78.8211 48.8292 77.786 49.4438C76.7508 50.0584 76.5567 51.0181 78.2604 52.4414C78.2604 52.4414 81.4197 49.6433 82.1907 48.8831C82.9562 48.1229 84.4065 47.0339 84.6599 47.2711C84.9133 47.5083 84.455 47.945 84.455 47.945L80.5679 51.2661L88.9622 49.9883L86.094 52.2635L89.2695 51.9777C89.2695 51.9777 90.2399 50.4628 94.1325 50.0315L98.8391 46.6673C100.068 50.7431 104.16 50.9803 104.16 50.9803C104.16 50.9803 100.322 48.1822 100.219 45.4812L105.185 49.3198L109.843 49.3683L110.134 49.5301L116.156 55.1047C117.326 56.1883 117.326 57.9459 116.156 59.0296L101.88 72.2545L98.6558 75.2413L114.555 89.9704C115.735 91.0594 115.735 92.817 114.566 93.9006Z"
        fill="white" />
    <path
        d="M53.4173 64.4747C53.5844 64.9546 54.0696 65.2619 54.5872 65.2619C54.7112 65.2619 54.8406 65.2457 54.97 65.208C55.6169 65.0139 55.9674 64.3723 55.7571 63.7739C55.0724 61.8168 53.7785 60.194 52.0263 59.0888C50.4089 58.0645 48.4842 57.5253 46.4733 57.5253C44.4623 57.5253 42.5376 58.0645 40.9202 59.0888C39.168 60.194 37.8741 61.8168 37.1894 63.7739C36.9792 64.3723 37.335 65.0139 37.9765 65.208C38.6235 65.402 39.319 65.0732 39.5238 64.4747C40.7315 61.0297 43.907 59.8005 46.4679 59.8005C49.0287 59.8005 52.2096 61.0243 53.4173 64.4747Z"
        fill="white" />
    <path
        d="M79.08 59.0834C77.4626 58.0591 75.5379 57.52 73.527 57.52C71.516 57.52 69.5913 58.0591 67.9739 59.0834C66.2217 60.1887 64.9278 61.8114 64.2431 63.7685C64.0329 64.3669 64.3887 65.0085 65.0303 65.2026C65.6772 65.3967 66.3727 65.0678 66.5776 64.4694C67.7852 61.0243 70.9607 59.7951 73.5216 59.7951C76.0878 59.7951 79.2579 61.0243 80.4656 64.4694C80.6327 64.9492 81.118 65.2565 81.6355 65.2565C81.7595 65.2565 81.8889 65.2403 82.0183 65.2026C82.6653 65.0085 83.0157 64.3669 82.8054 63.7685C82.1261 61.8114 80.8376 60.1887 79.08 59.0834Z"
        fill="white" />
    <path
        d="M69.2035 76.7454H50.7975C50.4578 76.7454 50.1829 77.0365 50.1937 77.3923C50.6627 94.2025 69.3382 94.2025 69.8073 77.3923C69.8181 77.0365 69.5431 76.7454 69.2035 76.7454Z"
        fill="white" />
</svg>
