<svg fill="none" height="27" viewBox="0 0 17 27" width="17" xmlns="http://www.w3.org/2000/svg">
    <path
        d="M2.55018 9.88816C2.41643 10.0289 2.25627 10.1419 2.07884 10.2208C1.90141 10.2996 1.71019 10.3427 1.5161 10.3477C1.32201 10.3526 1.12884 10.3193 0.947634 10.2496C0.766424 10.1798 0.60072 10.0751 0.459981 9.94138C0.319243 9.80763 0.206226 9.64746 0.127385 9.47004C0.0485432 9.29261 0.00542105 9.10139 0.000479508 8.9073C-0.00446203 8.7132 0.0288738 8.52004 0.0985845 8.33883C0.168295 8.15762 0.273015 7.99192 0.406766 7.85118L7.42829 0.460097C7.56639 0.314733 7.73261 0.198982 7.91685 0.119885C8.10109 0.0407888 8.2995 0 8.5 0C8.7005 0 8.89891 0.0407888 9.08315 0.119885C9.26739 0.198982 9.43361 0.314733 9.57171 0.460097L16.5932 7.85118C16.727 7.99192 16.8317 8.15762 16.9014 8.33883C16.9711 8.52004 17.0045 8.7132 16.9995 8.9073C16.9946 9.10139 16.9515 9.29261 16.8726 9.47004C16.7938 9.64746 16.6808 9.80763 16.54 9.94138C16.3993 10.0751 16.2336 10.1798 16.0524 10.2496C15.8712 10.3193 15.678 10.3526 15.4839 10.3477C15.2898 10.3427 15.0986 10.2996 14.9212 10.2208C14.7437 10.1419 14.5836 10.0289 14.4498 9.88816L9.97822 5.18152V21.4271L14.4498 16.7205C14.7199 16.4362 15.0919 16.271 15.4839 16.261C15.8759 16.251 16.2558 16.3971 16.54 16.6673C16.8243 16.9374 16.9895 17.3093 16.9995 17.7013C17.0095 18.0933 16.8634 18.4732 16.5932 18.7575L9.57171 26.1485C9.43361 26.2939 9.26739 26.4097 9.08315 26.4887C8.89891 26.5678 8.7005 26.6086 8.5 26.6086C8.2995 26.6086 8.10109 26.5678 7.91685 26.4887C7.73261 26.4097 7.56639 26.2939 7.42829 26.1485L0.406766 18.7575C0.136645 18.4732 -0.00950039 18.0933 0.000479508 17.7013C0.0104594 17.3093 0.175747 16.9374 0.459981 16.6673C0.744215 16.3971 1.12411 16.251 1.5161 16.261C1.90809 16.271 2.28006 16.4362 2.55018 16.7205L7.02178 21.4271V5.18152L2.55018 9.88816Z"
        fill="white" />
</svg>
