<svg width="100" height="123" viewBox="0 0 100 123" fill="none" xmlns="http://www.w3.org/2000/svg">
<path d="M13.7524 42.7172C13.7524 42.7172 15.8415 42.0837 16.7356 41.1178C17.6296 40.1519 18.9954 39.5184 18.9954 39.5184C16.6951 39.752 15.2035 41.8456 13.7524 42.7172Z" fill="white"/>
<path d="M33.1836 37.9279C31.6965 38.3143 30.425 39.4195 29.9083 39.9182C30.9057 39.0691 33.6149 38.0178 33.6149 38.0178L33.1836 37.9279Z" fill="white"/>
<path d="M29.6657 40.1653C29.6657 40.1653 29.7511 40.071 29.9083 39.9182C29.814 39.9991 29.7286 40.0845 29.6657 40.1653Z" fill="white"/>
<path d="M54.6096 32.9365L54.012 32.5007C54.012 32.5007 51.1951 31.7504 50.3235 31.0405C50.3235 31.0405 52.4126 33.5295 54.6096 32.9365Z" fill="white"/>
<path d="M55.0139 31.2517C55.8226 33.197 55.7193 36.0589 57.5748 37.263C57.5748 37.263 57.5119 35.8388 57.8309 35.5647C58.1499 35.2862 59.0664 36.6295 59.2371 37.7572C59.2371 34.2394 56.3393 33.9833 55.9304 31.7728C55.5261 29.5624 55.1397 28.592 51.8555 28.3359C51.86 28.3359 54.2052 29.3063 55.0139 31.2517Z" fill="white"/>
<path d="M92.6319 44.5727L95.1927 44.6536C92.1422 43.2923 92.4252 44.4424 89.0107 41.9669C89.0062 41.9669 90.6281 43.8449 92.6319 44.5727Z" fill="white"/>
<path d="M49.8338 37.9279C48.8543 39.7161 45.0804 39.8733 46.0823 41.8097C47.0842 43.7461 51.0288 45.2062 51.0288 45.2062H66.785C61.5734 41.1582 55.8765 41.9624 53.702 40.7135C51.5275 39.4645 54.1558 38.8984 53.9267 37.7572C53.4774 35.5558 45.4982 36.2207 45.4982 36.2207C49.052 36.5037 50.1707 37.3079 49.8338 37.9279Z" fill="white"/>
<path d="M86.2611 61.47L98.1535 50.4538C100.616 48.1714 100.616 44.4739 98.1535 42.1916L54.4568 1.71174C51.9948 -0.570581 48.0007 -0.570581 45.5387 1.71174L1.84653 42.1916C-0.615509 44.4739 -0.615509 48.1714 1.84653 50.4538L13.7389 61.47L1.84653 72.4863C-0.615509 74.7686 -0.615509 78.4662 1.84653 80.7485L18.7887 96.4417L19.3593 96.9719L19.4986 97.0977L45.5432 121.224C48.0052 123.506 51.9993 123.506 54.4613 121.224L87.2181 90.8752L90.0126 88.2874L98.1535 80.744C100.616 78.4617 100.616 74.7641 98.1535 72.4818L86.2611 61.47ZM48.2343 4.19624C49.2093 3.2932 50.7907 3.2932 51.7657 4.19624L90.3361 39.9272L89.5813 39.8329C89.5813 39.8329 86.0859 36.4768 82.2041 35.2502C81.3101 36.0005 78.1966 38.8849 78.1966 38.8849C75.4246 34.3787 72.693 33.1162 70.6488 32.4827C68.6001 31.8492 66.8973 29.5983 64.3364 28.9649C61.7755 28.3314 61.6048 27.343 60.6703 26.0805C59.7313 24.818 58.5812 24.4991 57.0042 23.7083C55.4273 22.9176 54.3175 21.8888 50.8626 17.724C46.8955 19.3234 40.9246 26.2602 37.5775 28.0169C34.2304 29.7736 31.1798 31.7099 28.6639 34.4191L23.9285 34.19L21.4979 32.3839L15.8685 36.8003H13.0515C11.9867 38.3098 10.3334 40.0306 7.60176 41.8366L48.2343 4.19624ZM41.6974 95.5746C42.7037 95.988 44.0471 95.8846 44.7165 95.4713C45.0939 95.2377 45.1882 95.6914 45.3769 96.1182C44.8513 96.6124 44.3122 97.0797 43.8809 97.21C43.5709 96.9943 43.2743 96.7742 43.1171 96.554C42.6408 95.8891 42.0074 96.0374 41.7693 95.8172C41.5311 95.5971 40.4978 94.3077 41.0549 94.6042C41.5401 94.8603 41.6614 94.8109 42.1646 94.5952C41.5761 95.013 41.1987 95.3724 41.6974 95.5746ZM58.4194 95.5746C58.8957 95.3814 58.5722 95.0445 58.0331 94.6491C58.4284 94.8153 58.5677 94.8333 59.008 94.6042C59.5651 94.3077 58.5318 95.5971 58.2936 95.8172C58.0555 96.0374 57.4221 95.8891 56.9458 96.554C56.8694 96.6574 56.7571 96.7652 56.6313 96.873C56.1236 96.5091 55.562 95.934 55.0678 95.4713C55.1532 95.3949 55.252 95.3814 55.4003 95.4713C56.0697 95.8846 57.4131 95.988 58.4194 95.5746ZM67.2208 98.2433C67.3421 98.1939 67.3915 98.131 67.3825 98.0546C67.4095 98.0726 67.4319 98.0951 67.4544 98.1175C67.6835 98.3467 67.7464 98.6117 67.9576 98.8094C67.715 99.061 67.4185 99.3126 67.0995 99.5507C66.8479 99.4878 66.6232 99.4429 66.4705 99.4159C66.0212 99.3396 65.3787 98.6656 64.8441 98.1669C64.907 98.113 64.9744 98.104 65.0822 98.1669C65.554 98.4635 66.5019 98.5354 67.2208 98.2433ZM78.8975 93.0587C78.8211 92.9868 78.7582 92.9149 78.7043 92.843C78.1741 92.1062 77.4688 92.2679 77.2037 92.0253C76.9386 91.7827 75.8379 90.7988 76.4534 91.1268C76.8802 91.3514 77.0015 91.32 77.2936 91.1672C77.5766 91.2616 77.8507 91.3874 78.0483 91.4772C78.3988 91.639 78.8705 91.6929 79.7466 91.639C79.9712 91.6255 80.151 91.6704 80.3082 91.7468C80.434 91.8097 80.5418 91.8905 80.6452 91.9804L80.2498 92.3488L79.2075 93.3148C79.0952 93.2339 78.9873 93.144 78.8975 93.0587ZM85.5827 86.8676C85.4659 86.7733 85.3491 86.6655 85.2278 86.5531C85.3266 86.333 85.376 86.0949 85.5737 86.2162C85.7085 86.2971 85.8927 86.36 86.0994 86.3869C86.2836 86.4139 86.4858 86.4139 86.6879 86.3869L85.9286 87.0878C85.8208 87.0429 85.704 86.9665 85.5827 86.8676ZM34.5943 98.76C34.4191 98.6567 34.2394 98.5443 34.0552 98.423C34.4191 98.4006 34.756 98.3107 34.9807 98.1714C35.084 98.1085 35.1559 98.1175 35.2188 98.1714C35.0211 98.3556 34.81 98.5668 34.5943 98.76ZM20.9498 93.463C21.1789 93.5169 21.417 93.5394 21.6506 93.5394C22.1224 93.5394 22.5717 93.4361 22.8547 93.2608C22.967 93.1935 23.0434 93.2024 23.1063 93.2608C22.8277 93.5214 22.5222 93.8224 22.2302 94.0785C22.1179 94.1774 22.0056 94.2672 21.8977 94.3436L20.9498 93.463ZM24.198 90.2866C24.1441 90.2148 24.1037 90.1249 24.0633 90.0171C24.1621 89.9991 24.2744 89.9542 24.4317 89.8688C24.8091 89.6711 24.5215 89.9766 24.198 90.2866ZM22.1628 91.6479C21.8259 92.0164 21.1699 92.3937 20.7566 92.7127C20.6218 92.8161 20.514 92.9149 20.4511 93.0003L19.8311 92.4252C19.9434 92.3488 20.0422 92.25 20.1501 92.1466C20.4196 91.8861 20.7117 91.6075 21.2193 91.639C21.6012 91.6614 21.9112 91.6659 22.1628 91.6479ZM95.4713 78.2505L87.2495 85.8658L87.1552 85.9556C87.0743 85.8792 86.962 85.7939 86.8317 85.7085C86.5262 85.4974 86.1443 85.2547 85.9781 85.0256C85.6276 84.5359 85.1604 84.6437 84.9852 84.482C84.81 84.3202 84.0462 83.3723 84.4595 83.5879C84.8684 83.8036 84.9268 83.7227 85.4524 83.507C85.9781 83.2914 85.686 83.3453 86.1533 83.4531C86.6205 83.561 87.0294 82.7478 85.7445 82.6399C85.0885 82.586 84.7066 81.7908 84.2259 81.5033C84.6707 81.4898 84.4056 81.5033 84.81 81.5033C85.2188 81.5033 85.9781 81.2337 85.4524 81.0675C84.9268 80.9057 84.1046 80.1465 84.6347 80.1465C85.1604 80.1465 85.5692 79.823 84.81 79.6028C84.0642 79.3917 83.3184 76.9386 82.7927 76.8443V76.8353C82.7882 76.8353 82.7837 76.8398 82.7792 76.8398C82.7747 76.8398 82.7702 76.8353 82.7657 76.8353V76.8443C82.2401 76.9341 81.4943 79.3872 80.7485 79.6028C79.9892 79.8185 80.3981 80.1465 80.9237 80.1465C81.4494 80.1465 80.6317 80.9057 80.1015 81.0675C79.5759 81.2292 80.3352 81.5033 80.744 81.5033C81.1484 81.5033 80.4385 81.975 80.8878 81.993C80.4025 82.2805 80.461 82.586 79.805 82.6444C78.5156 82.7523 78.9289 83.5655 79.3962 83.4576C79.8634 83.3498 79.6208 83.5295 80.1465 83.7452C80.6766 83.9608 80.6541 84.1046 81.0675 83.8889C81.4763 83.6733 80.744 84.3202 80.5733 84.4865C80.3981 84.6482 79.9263 84.5404 79.5759 85.0301C79.2254 85.5198 77.8776 86.0589 78.4033 86.2746C78.9334 86.4902 79.6343 86.4363 79.9847 86.2207C80.0611 86.1713 80.115 86.1803 80.1599 86.2207C79.7691 86.5891 79.2928 87.0878 78.9604 87.1417C78.4662 87.2226 77.0015 87.6045 77.0015 88.0088C77.0015 88.4132 77.7069 88.2245 77.9944 88.5255C78.2281 88.7636 78.2101 89.0466 78.6818 89.1545C78.6414 89.1904 78.5965 89.2308 78.5515 89.2713C78.4886 89.2623 78.4257 89.2533 78.3583 89.2488C77.3699 89.1679 77.4598 88.7052 76.7275 88.2649C77.4059 88.2424 76.3366 87.5281 76.9476 87.5281C77.5676 87.5281 78.7133 87.1192 77.918 86.8721C77.1228 86.625 75.8873 85.4839 76.6825 85.4839C77.4778 85.4839 78.0933 84.9942 76.9476 84.6662C75.8199 84.3472 74.6967 80.6452 73.9015 80.5104V80.4969C73.8925 80.4969 73.8835 80.5014 73.8791 80.5014C73.8701 80.5014 73.8656 80.4969 73.8566 80.4969V80.5104C73.0659 80.6497 71.9382 84.3472 70.815 84.6662C69.6693 84.9942 70.2848 85.4839 71.0801 85.4839C71.8753 85.4839 70.6398 86.6295 69.8446 86.8721C69.0493 87.1192 70.1995 87.5281 70.815 87.5281C71.4215 87.5281 71.0217 87.5056 71.6956 87.5281C70.9632 87.9639 70.3927 89.1634 69.3998 89.2443C67.4589 89.4061 68.0744 90.6371 68.7798 90.4708C69.4851 90.3091 69.0448 90.2237 69.8401 90.5517C70.6353 90.8797 70.7251 91.001 71.3406 90.673C71.9606 90.345 70.8105 91.7782 70.5454 92.0209C70.2803 92.268 69.575 92.1017 69.0448 92.8385C68.5147 93.5753 66.484 94.393 67.2792 94.721C68.0744 95.049 69.1347 94.9681 69.6648 94.6401C69.9614 94.4559 70.0377 94.8153 70.186 95.1478C69.7322 95.5701 69.2695 95.97 68.9145 96.0284C68.2945 96.1272 66.6861 96.5361 66.1425 97.0168C65.9358 96.8596 65.7471 96.7023 65.6393 96.5496C65.1631 95.8891 64.5296 96.0329 64.287 95.8127C64.0489 95.5926 63.0605 94.7075 63.6131 95.004C64.1702 95.2961 64.1432 95.1029 64.8576 94.8064C65.5719 94.5143 65.2395 94.2672 65.8729 94.4155C66.5064 94.5638 67.0635 93.4585 65.3158 93.3103C64.4263 93.2339 64.5071 92.8206 63.8467 92.4297C64.4577 92.4117 63.4963 91.7692 64.0444 91.7692C64.6015 91.7692 65.6303 91.4008 64.916 91.1807C64.2016 90.9605 63.0919 89.9317 63.8063 89.9317C64.5206 89.9317 65.0777 89.4914 64.0444 89.1949C63.0335 88.9074 62.0226 85.5827 61.3083 85.4569V85.4479C61.3038 85.4479 61.2948 85.4524 61.2903 85.4524C61.2813 85.4524 61.2768 85.4479 61.2679 85.4479V85.4569C60.558 85.5782 59.5426 88.9029 58.5318 89.1949C57.5029 89.4869 58.0555 89.9317 58.7699 89.9317C59.4842 89.9317 58.3745 90.9605 57.6602 91.1807C56.9458 91.4008 57.9792 91.7692 58.5318 91.7692C59.0799 91.7692 58.716 91.7513 59.3225 91.7692C58.6665 92.1601 58.1499 93.2384 57.2603 93.3148C56.9099 93.3462 56.6493 93.4136 56.4651 93.5035C56.3528 93.4001 56.2539 93.2923 56.1776 93.189C55.5036 92.2545 54.6096 92.4611 54.2726 92.1511C53.9402 91.8411 52.5429 90.5966 53.3246 91.01C54.1109 91.4233 54.0704 91.1492 55.0813 90.7314C56.0877 90.3181 55.6204 89.9721 56.5145 90.1788C57.4086 90.3855 58.1948 88.831 55.7283 88.6243C54.4748 88.521 54.5916 87.9324 53.6616 87.3798C54.5197 87.3529 53.1674 86.4453 53.9402 86.4453C54.7264 86.4453 56.1776 85.9286 55.1712 85.6142C54.1648 85.3042 52.5968 83.853 53.6032 83.853C54.6096 83.853 55.3913 83.233 53.9402 82.8152C52.5115 82.4063 51.0872 77.7204 50.0809 77.5452V77.5272C50.0719 77.5272 50.0629 77.5362 50.0539 77.5362C50.0449 77.5362 50.0359 77.5272 50.0225 77.5272V77.5452C49.0206 77.7204 47.5919 82.4063 46.1632 82.8152C44.7075 83.2285 45.4938 83.853 46.5001 83.853C47.5065 83.853 45.9385 85.3042 44.9322 85.6142C43.9258 85.9242 45.3769 86.4453 46.1632 86.4453C46.9359 86.4453 46.4238 86.4184 47.2819 86.4453C46.3564 86.9979 45.6285 88.5165 44.3751 88.6198C41.913 88.8265 42.6993 90.381 43.5933 90.1743C44.4874 89.9677 43.9303 89.8643 44.9366 90.2776C45.943 90.691 46.0554 90.8482 46.8371 90.4349C47.6188 90.0171 46.1677 91.8322 45.8307 92.1466C45.4982 92.4566 44.5997 92.25 43.9303 93.1845C43.8494 93.2923 43.7461 93.4046 43.6248 93.5169C43.4406 93.4181 43.171 93.3417 42.7936 93.3103C41.904 93.2339 41.3874 92.1601 40.7314 91.7648C41.3379 91.7468 40.974 91.7648 41.5221 91.7648C42.0793 91.7648 43.1081 91.3964 42.3937 91.1762C41.6794 90.9561 40.5697 89.9272 41.284 89.9272C41.9984 89.9272 42.5555 89.4869 41.5221 89.1904C40.5113 88.9029 39.4959 85.5782 38.7861 85.4524V85.4389C38.7771 85.4389 38.7726 85.4434 38.7636 85.4434C38.7591 85.4434 38.7501 85.4389 38.7411 85.4389V85.4524C38.0313 85.5737 37.0159 88.8984 36.005 89.1904C34.9717 89.4824 35.5288 89.9272 36.2431 89.9272C36.9575 89.9272 35.8433 90.9561 35.1334 91.1762C34.4191 91.3964 35.4479 91.7648 36.005 91.7648C36.5532 91.7648 35.5917 92.4072 36.2027 92.4252C35.5423 92.8161 35.6231 93.2339 34.7336 93.3058C32.9859 93.454 33.543 94.5548 34.1765 94.411C34.81 94.2627 34.4775 94.5098 35.1918 94.8019C35.9062 95.0984 35.8792 95.2916 36.4363 94.9995C36.9889 94.7075 36.0005 95.5881 35.7624 95.8083C35.5243 96.0284 34.8908 95.8801 34.4101 96.5451C34.1405 96.918 33.4397 97.3178 33.0084 97.6458C32.8646 97.52 32.7298 97.3987 32.6085 97.2729C32.8107 97.0797 32.8736 96.8281 33.0937 96.6035C33.5205 96.1677 34.5404 96.4462 34.5404 95.8532C34.5404 95.2601 32.4108 94.7075 31.6875 94.5907C31.346 94.5323 30.8968 94.1504 30.461 93.7416C30.6047 93.4181 30.6766 93.0722 30.9641 93.2519C31.4763 93.5664 32.4962 93.6472 33.2644 93.3327C34.0327 93.0182 32.0739 92.2275 31.5617 91.5177C31.0495 90.8078 30.3711 90.965 30.115 90.7269C29.8589 90.4888 28.7537 89.1095 29.3468 89.424C29.9443 89.7385 30.0297 89.6217 30.7934 89.3072C31.5617 88.9927 31.1349 89.0691 31.8178 89.2308C32.4962 89.3881 33.0937 88.2065 31.2202 88.0447C30.2633 87.9639 29.7152 86.8092 29.0098 86.3914C29.6612 86.3689 29.2704 86.3914 29.8589 86.3914C30.4565 86.3914 31.5617 85.996 30.7934 85.7579C30.0297 85.5198 28.8346 84.4191 29.6028 84.4191C30.3711 84.4191 30.9641 83.9473 29.8589 83.6284C28.7717 83.3184 27.6889 79.7511 26.9251 79.6208V79.6073C26.9162 79.6073 26.9117 79.6118 26.9027 79.6118C26.8982 79.6118 26.8892 79.6073 26.8802 79.6073V79.6208C26.1165 79.7556 25.0292 83.3228 23.9464 83.6284C22.8412 83.9428 23.4343 84.4191 24.2025 84.4191C24.9708 84.4191 23.7757 85.5243 23.012 85.7579C22.2437 85.996 23.3534 86.3914 23.9464 86.3914C24.535 86.3914 23.5062 87.0833 24.1576 87.1013C23.7218 87.3618 23.587 87.6269 23.3264 87.8156C22.994 87.4832 21.8798 87.2001 21.4575 87.1327C21.2193 87.0968 20.9138 86.8317 20.6128 86.5487C20.7117 86.3285 20.7611 86.0904 20.9588 86.2117C21.3092 86.4274 22.0101 86.4813 22.5402 86.2656C23.0659 86.05 21.718 85.5063 21.3676 85.0211C21.0172 84.5314 20.5499 84.6392 20.3747 84.4775C20.1995 84.3158 19.4402 83.3678 19.849 83.5834C20.2579 83.7991 20.3163 83.7182 20.8419 83.5026C21.3676 83.2869 21.0756 83.3408 21.5473 83.4486C22.0146 83.5565 22.4234 82.7433 21.1385 82.6355C20.4825 82.5815 20.1006 81.7863 19.6199 81.4988C20.0647 81.4853 19.7996 81.4988 20.204 81.4988C20.6128 81.4988 21.3721 81.2292 20.8464 81.063C20.3208 80.9012 19.5031 80.142 20.0288 80.142C20.5544 80.142 20.9632 79.8185 20.204 79.5983C19.4582 79.3872 18.7124 76.9341 18.1867 76.8398V76.8308C18.1822 76.8308 18.1777 76.8353 18.1732 76.8353C18.1687 76.8353 18.1643 76.8308 18.1598 76.8308V76.8398C17.6341 76.9296 16.8883 79.3827 16.1425 79.5983C15.3832 79.814 15.7921 80.142 16.3177 80.142C16.8434 80.142 16.0257 80.9012 15.4956 81.063C14.9699 81.2247 15.7292 81.4988 16.138 81.4988C16.5424 81.4988 15.8325 81.9705 16.2818 81.9885C15.7966 82.276 15.855 82.5815 15.199 82.6399C13.9096 82.7478 14.3229 83.561 14.7902 83.4531C15.2574 83.3453 15.0148 83.525 15.5405 83.7407C16.0661 83.9563 16.0482 84.1001 16.4615 83.8844C16.8703 83.6688 16.138 84.3158 15.9673 84.482C15.7921 84.6437 15.3203 84.5359 14.9699 85.0256C14.6644 85.4524 13.6041 85.9152 13.685 86.1713C13.694 86.2072 13.7254 86.2342 13.7838 86.2611C13.7883 86.2656 13.7973 86.2656 13.8018 86.2701C14.3319 86.4858 15.0328 86.4318 15.3832 86.2162C15.4596 86.1668 15.5135 86.1758 15.5585 86.2162C15.2574 86.4992 14.9115 86.8542 14.615 87.0294C14.5251 87.0833 14.4353 87.1237 14.3589 87.1372C14.3005 87.1462 14.2331 87.1597 14.1522 87.1776L11.9508 85.1379L3.19436 77.015C2.21943 76.112 2.21943 74.6473 3.19436 73.7443L15.0912 62.7235L17.7779 60.2345L4.52422 47.9603C3.54929 47.0572 3.54929 45.5926 4.52422 44.6851L4.52871 44.6806C7.73205 44.3122 9.51119 42.7352 14.0084 38.211L17.8453 38.3682L21.7675 34.8908C23.6005 36.8272 26.714 36.4723 26.714 36.4723C19.4222 40.4619 18.3979 44.3751 18.3979 44.3751C19.9748 41.7692 23.4298 40.2642 23.4298 40.2642C22.9176 41.6075 23.6005 42.5959 23.6005 42.5959C24.7102 40.8977 28.4212 37.1821 34.7515 35.0301C34.7515 35.0301 34.1136 36.2162 35.5198 37.9953C36.926 39.7745 36.3285 40.9965 33.3857 43.2519C36.6475 43.2698 38.822 41.0774 38.822 41.0774C38.822 41.0774 41.1448 42.8565 43.2788 42.7981C40.5697 41.9085 40.2732 39.5588 40.2732 39.5588C38.2469 38.2155 37.7976 36.2027 37.7976 36.2027C41.4458 36.2207 43.8943 38.1571 43.8943 38.1571C45.9206 36.2027 43.9348 35.8478 43.9348 34.3652C43.9348 32.8826 46.5136 31.6965 47.8165 31.2517C49.1194 30.8069 50.4403 30.6901 50.5886 28.6953L50.1842 22.7693C50.1842 22.7693 50.8446 22.4144 51.5275 21.5833C53.127 25.7301 55.3644 29.3288 61.187 32.5097C61.187 32.5097 55.1936 27.5721 55.4722 25.2179C55.4722 25.2179 59.9919 29.2883 61.6542 30.3756C63.3166 31.4628 62.1215 33.3992 61.2903 34.6033C60.4592 35.8073 60.4816 37.4292 61.6542 37.3214H64.7902L61.5913 41.9849C62.1439 41.2346 63.8737 40.3945 64.8531 40.363C65.8325 40.3316 65.6842 40.691 64.8216 41.2032C63.959 41.7153 63.7973 42.515 65.217 43.7011C65.217 43.7011 67.8498 41.3694 68.4922 40.7359C69.1302 40.1024 70.3388 39.1949 70.5499 39.3926C70.7611 39.5903 70.3792 39.9542 70.3792 39.9542L67.1399 42.7217L74.1351 41.6569L71.745 43.5529L74.3912 43.3148C74.3912 43.3148 75.1999 42.0523 78.4437 41.6929L82.3659 38.8894C83.3902 42.2859 86.8002 42.4836 86.8002 42.4836C86.8002 42.4836 83.6014 40.1519 83.516 37.901L87.6539 41.0998L91.5356 41.1403L91.7782 41.275L96.7967 45.9206C97.7716 46.8236 97.7716 48.2883 96.7967 49.1913L84.8998 60.2121L82.2131 62.701L95.4623 74.9753C96.4462 75.8828 96.4462 77.3475 95.4713 78.2505Z" fill="white"/>
<path d="M44.5143 53.729C44.6536 54.1288 45.058 54.3849 45.4893 54.3849C45.5926 54.3849 45.7004 54.3714 45.8082 54.34C46.3474 54.1783 46.6394 53.6436 46.4642 53.1449C45.8936 51.514 44.8153 50.1617 43.3552 49.2407C42.0074 48.3871 40.4034 47.9378 38.7276 47.9378C37.0518 47.9378 35.4479 48.3871 34.1001 49.2407C32.64 50.1617 31.5617 51.514 30.9911 53.1449C30.8159 53.6436 31.1124 54.1783 31.647 54.34C32.1862 54.5017 32.7657 54.2277 32.9365 53.729C33.9429 50.8581 36.5891 49.8338 38.7232 49.8338C40.8572 49.8338 43.508 50.8536 44.5143 53.729Z" fill="white"/>
<path d="M65.8999 49.2362C64.5521 48.3826 62.9482 47.9333 61.2724 47.9333C59.5966 47.9333 57.9926 48.3826 56.6448 49.2362C55.1847 50.1572 54.1064 51.5096 53.5358 53.1404C53.3606 53.6391 53.6571 54.1738 54.1918 54.3355C54.7309 54.4973 55.3105 54.2232 55.4812 53.7245C56.4876 50.8536 59.1338 49.8293 61.2679 49.8293C63.4064 49.8293 66.0482 50.8536 67.0545 53.7245C67.1938 54.1244 67.5982 54.3804 68.0295 54.3804C68.1328 54.3804 68.2406 54.367 68.3485 54.3355C68.8876 54.1738 69.1796 53.6391 69.0044 53.1404C68.4383 51.5096 67.3645 50.1572 65.8999 49.2362Z" fill="white"/>
<path d="M57.6692 63.9545H42.3308C42.0478 63.9545 41.8187 64.1971 41.8277 64.4937C42.2185 78.5021 57.7815 78.5021 58.1723 64.4937C58.1813 64.1971 57.9522 63.9545 57.6692 63.9545Z" fill="white"/>
</svg>
