<svg width="28" height="28" viewBox="0 0 28 28" fill="none" xmlns="http://www.w3.org/2000/svg">
<path d="M16.3333 22.1667C20.7328 22.1667 22.9331 22.1667 24.2993 20.7993C25.6666 19.4332 25.6666 17.2328 25.6666 12.8333C25.6666 8.43383 25.6666 6.2335 24.2993 4.86733C22.9331 3.5 20.7328 3.5 16.3333 3.5H11.6666C7.26709 3.5 5.06675 3.5 3.70059 4.86733C2.33325 6.2335 2.33325 8.43383 2.33325 12.8333C2.33325 17.2328 2.33325 19.4332 3.70059 20.7993C4.46242 21.5623 5.48325 21.8995 6.99992 22.0477" stroke="white" stroke-width="2" stroke-linecap="round" stroke-linejoin="round"/>
<path d="M16.3334 22.1667C14.8914 22.1667 13.3024 22.75 11.8522 23.5025C9.5212 24.7123 8.3557 25.3178 7.7817 24.9317C7.2077 24.5467 7.3162 23.3508 7.53437 20.9603L7.58337 20.4167" stroke="white" stroke-width="2" stroke-linecap="round"/>
</svg>
