<svg fill="none" height="28" viewBox="0 0 28 28" width="28" xmlns="http://www.w3.org/2000/svg">
    <g clip-path="url(#clip0_21_275)">
        <path
            d="M25.2856 21.6456C24.5356 20.9769 23.879 20.2104 23.3334 19.3667C22.7378 18.202 22.3808 16.9301 22.2834 15.6256V11.7833C22.2886 9.73436 21.5453 7.75403 20.1933 6.21442C18.8413 4.67481 16.9737 3.68189 14.9412 3.42222V2.41889C14.9412 2.1435 14.8318 1.8794 14.6371 1.68468C14.4424 1.48995 14.1783 1.38055 13.9029 1.38055C13.6275 1.38055 13.3634 1.48995 13.1687 1.68468C12.9739 1.8794 12.8645 2.1435 12.8645 2.41889V3.43778C10.8503 3.71616 9.00518 4.71509 7.67095 6.24953C6.33671 7.78397 5.60377 9.74994 5.60787 11.7833V15.6256C5.51046 16.9301 5.15347 18.202 4.55787 19.3667C4.02189 20.2085 3.3758 20.9749 2.63676 21.6456C2.55379 21.7184 2.4873 21.8082 2.44171 21.9087C2.39611 22.0093 2.37245 22.1185 2.37231 22.2289V23.2867C2.37231 23.4929 2.45426 23.6908 2.60012 23.8366C2.74598 23.9825 2.94381 24.0644 3.15009 24.0644H24.7723C24.9786 24.0644 25.1764 23.9825 25.3223 23.8366C25.4681 23.6908 25.5501 23.4929 25.5501 23.2867V22.2289C25.5499 22.1185 25.5263 22.0093 25.4807 21.9087C25.4351 21.8082 25.3686 21.7184 25.2856 21.6456ZM3.99009 22.5089C4.71374 21.8098 5.35089 21.0264 5.88787 20.1756C6.63812 18.7689 7.07587 17.2169 7.1712 15.6256V11.7833C7.14036 10.8718 7.29325 9.96339 7.62079 9.11218C7.94833 8.26098 8.44381 7.48439 9.07773 6.82866C9.71164 6.17292 10.471 5.65146 11.3107 5.29532C12.1503 4.93918 13.053 4.75565 13.9651 4.75565C14.8771 4.75565 15.7799 4.93918 16.6195 5.29532C17.4591 5.65146 18.2185 6.17292 18.8525 6.82866C19.4864 7.48439 19.9818 8.26098 20.3094 9.11218C20.6369 9.96339 20.7898 10.8718 20.759 11.7833V15.6256C20.8543 17.2169 21.2921 18.7689 22.0423 20.1756C22.5793 21.0264 23.2164 21.8098 23.9401 22.5089H3.99009Z"
            fill="white" />
        <path
            d="M14 26.6622C14.4899 26.6509 14.9601 26.4667 15.3273 26.1422C15.6946 25.8177 15.9352 25.3737 16.0066 24.8889H11.9155C11.989 25.3869 12.2409 25.8413 12.6243 26.1675C13.0077 26.4937 13.4966 26.6695 14 26.6622Z"
            fill="white" />
    </g>
    <defs>
        <clipPath id="clip0_21_275">
            <rect fill="white" height="28" width="28" />
        </clipPath>
    </defs>
</svg>
