<svg fill="none" height="35" viewBox="0 0 35 35" width="35" xmlns="http://www.w3.org/2000/svg">
    <path
        d="M29.4285 2.70001C29.6039 2.81339 29.748 2.96889 29.8478 3.15231C29.9476 3.33572 29.9998 3.54121 29.9998 3.75001V15C29.9998 15.3315 29.8681 15.6495 29.6336 15.8839C29.3992 16.1183 29.0813 16.25 28.7498 16.25H3.74976C3.4638 16.25 3.18651 16.1519 2.96413 15.9721C2.74175 15.7923 2.58774 15.5417 2.52779 15.2621C2.46783 14.9825 2.50555 14.6908 2.63466 14.4356C2.76378 14.1805 2.97647 13.9773 3.23726 13.86L28.2373 2.61001C28.4276 2.52439 28.6363 2.48777 28.8443 2.50349C29.0524 2.51921 29.2532 2.58677 29.4285 2.70001ZM9.57351 13.75H27.4985V5.68376L9.57476 13.75H9.57351ZM29.9998 31.5625C29.9996 31.7199 29.9599 31.8746 29.8842 32.0126C29.8086 32.1505 29.6994 32.2672 29.5668 32.3519C29.4342 32.4365 29.2824 32.4865 29.1254 32.4971C28.9684 32.5077 28.8113 32.4786 28.6685 32.4125L3.04351 20.5375C2.85012 20.4475 2.69319 20.2943 2.59863 20.1031C2.50408 19.9119 2.47756 19.6941 2.52344 19.4858C2.56933 19.2775 2.68488 19.0911 2.85102 18.9573C3.01716 18.8235 3.22396 18.7504 3.43726 18.75H29.0623C29.3109 18.75 29.5494 18.8488 29.7252 19.0246C29.901 19.2004 29.9998 19.4389 29.9998 19.6875V31.5625Z"
        fill="white" />
</svg>
