<svg width="150" height="113" viewBox="0 0 150 113" fill="none" xmlns="http://www.w3.org/2000/svg">
<path d="M147.23 36.8295L129.392 20.3051H125.328L123.333 22.1516L143.207 40.5697C144.669 41.9242 144.669 44.1212 143.207 45.4758L130.874 56.8986L130.733 57.0334C130.611 56.9189 130.443 56.7908 130.254 56.6628C129.796 56.3393 129.216 55.9821 128.974 55.6384C128.448 54.9038 127.741 55.0656 127.484 54.823C127.215 54.5804 126.076 53.1584 126.689 53.4819C127.303 53.8054 127.39 53.6841 128.185 53.3606C128.974 53.0371 128.536 53.118 129.237 53.2797C129.938 53.4415 130.551 52.2217 128.623 52.0599C127.639 51.9791 127.067 50.7862 126.339 50.3549C127.013 50.328 126.608 50.3549 127.215 50.3549C127.835 50.3549 128.974 49.9438 128.185 49.7012C127.39 49.4586 126.164 48.3197 126.952 48.3197C127.741 48.3197 128.361 47.8277 127.215 47.5043C126.096 47.1875 124.978 43.5079 124.189 43.3732V43.3597H124.142V43.3732C123.353 43.5079 122.235 47.1875 121.116 47.5043C119.977 47.8277 120.59 48.3197 121.379 48.3197C122.174 48.3197 120.941 49.4586 120.152 49.7012C119.364 49.9438 120.503 50.3549 121.116 50.3549C121.723 50.3549 120.664 51.0625 121.338 51.0828C120.604 51.5208 120.698 51.9791 119.714 52.0599C117.78 52.2217 118.4 53.4415 119.101 53.2797C119.802 53.118 119.431 53.3875 120.22 53.711C121.015 54.0412 120.981 54.2569 121.601 53.9334C122.214 53.6032 121.116 54.5804 120.853 54.823C120.59 55.0656 119.889 54.9038 119.364 55.6384C118.838 56.373 116.816 57.1817 117.605 57.5119C118.4 57.8354 119.451 57.7545 119.977 57.431C120.092 57.3569 120.173 57.3704 120.233 57.431C119.647 57.9836 118.939 58.7249 118.441 58.8058C117.693 58.9339 115.496 59.4999 115.496 60.1132C115.496 60.7197 116.554 60.4367 116.992 60.8815C117.335 61.2386 117.315 61.6632 118.016 61.825C117.955 61.8856 117.888 61.9395 117.821 62.0002C117.726 61.9867 117.632 61.9732 117.531 61.9665C116.048 61.8452 116.183 61.151 115.084 60.4973C116.102 60.4636 114.498 59.3921 115.415 59.3921C116.338 59.3921 118.056 58.7789 116.87 58.4082C115.678 58.0376 113.824 56.3258 115.017 56.3258C116.203 56.3258 117.133 55.5845 115.415 55.0993C113.723 54.6141 112.032 49.0677 110.846 48.8588V48.8386C110.832 48.8386 110.819 48.8521 110.812 48.8521C110.798 48.8521 110.785 48.8386 110.778 48.8386V48.8588C109.585 49.0677 107.901 54.6141 106.209 55.0993C104.491 55.5845 105.414 56.3258 106.607 56.3258C107.799 56.3258 105.946 58.0376 104.753 58.4082C103.561 58.7789 105.286 59.3921 106.209 59.3921C107.126 59.3921 106.519 59.3584 107.53 59.3921C106.438 60.0458 105.576 61.8452 104.093 61.9665C101.175 62.2158 102.105 64.0556 103.163 63.8063C104.221 63.5637 103.561 63.4424 104.753 63.9276C105.946 64.4195 106.074 64.6015 107.004 64.1163C107.934 63.6243 106.209 65.7741 105.811 66.138C105.414 66.5087 104.356 66.2593 103.561 67.3645C102.765 68.4698 99.7192 69.6963 100.912 70.1882C102.105 70.6802 103.695 70.5522 104.491 70.0669C104.935 69.7906 105.05 70.323 105.272 70.8285C104.592 71.4619 103.897 72.0617 103.365 72.1493C102.435 72.3043 100.022 72.9109 99.207 73.6387C98.8903 73.4028 98.614 73.1669 98.4455 72.9311C97.7311 71.9404 96.7809 72.1561 96.4238 71.8259C96.0666 71.4956 94.584 70.1748 95.4129 70.6128C96.2485 71.0576 96.2081 70.7611 97.2796 70.323C98.3512 69.8782 97.8525 69.5143 98.8027 69.7367C99.7529 69.9524 100.589 68.3013 97.967 68.0789C96.6394 67.9643 96.7607 67.3443 95.7701 66.758C96.6866 66.7311 95.2444 65.7674 96.0666 65.7674C96.9022 65.7674 98.4455 65.2147 97.374 64.8845C96.3025 64.5543 94.6379 63.011 95.7094 63.011C96.7809 63.011 97.6166 62.3439 96.0666 61.9058C94.5503 61.4745 93.0272 56.4876 91.9624 56.2989V56.2854C91.9557 56.2854 91.9422 56.2921 91.9355 56.2921C91.922 56.2921 91.9085 56.2854 91.9018 56.2854V56.2989C90.837 56.4876 89.3139 61.4745 87.7976 61.9058C86.2476 62.3439 87.0833 63.011 88.1548 63.011C89.2263 63.011 87.5618 64.5543 86.4902 64.8845C85.4187 65.2147 86.962 65.7674 87.7976 65.7674C88.6198 65.7674 88.0739 65.7337 88.9837 65.7674C87.9998 66.3537 87.2248 67.9643 85.8905 68.0789C85.3648 68.1261 84.9739 68.2271 84.6976 68.3619C84.5292 68.2002 84.3809 68.0452 84.2731 67.8902C83.2622 66.4884 81.9211 66.7985 81.4157 66.3334C80.917 65.8684 78.8211 64.0017 79.9937 64.6217C81.1731 65.2484 81.1124 64.8306 82.6287 64.2106C84.1383 63.5906 83.4374 63.0717 84.7785 63.3817C86.1129 63.6917 87.2922 61.36 83.5992 61.05C81.7189 60.8882 81.8941 60.0121 80.4991 59.1832C81.7863 59.1428 79.7578 57.7815 80.917 57.7815C82.0896 57.7815 84.2731 57.0065 82.7635 56.5415C81.2539 56.0697 78.902 53.8997 80.4115 53.8997C81.9211 53.8997 83.0937 52.963 80.917 52.343C78.7739 51.7297 76.6376 44.7008 75.128 44.438V44.411C75.1146 44.411 75.1011 44.4245 75.0876 44.4245C75.0741 44.4245 75.0606 44.411 75.0404 44.411V44.438C73.5376 44.7008 71.3946 51.7297 69.2515 52.343C67.0748 52.963 68.2474 53.8997 69.7637 53.8997C71.2732 53.8997 68.9213 56.0697 67.4117 56.5415C65.9021 57.0065 68.0789 57.7815 69.2515 57.7815C70.4106 57.7815 69.6491 57.7478 70.9296 57.7815C69.5413 58.6104 68.4495 60.8882 66.5693 61.05C62.8763 61.36 64.0556 63.6917 65.3967 63.3817C66.7378 63.0717 65.9021 62.9167 67.4117 63.5367C68.9213 64.1567 69.0898 64.3926 70.2624 63.7726C71.435 63.1458 69.2515 65.8684 68.7528 66.3334C68.2474 66.7985 66.9063 66.4884 65.9021 67.8902C65.7808 68.0519 65.6258 68.2204 65.4371 68.3889C65.1608 68.2406 64.7565 68.1261 64.1971 68.0789C62.8561 67.9643 62.0878 66.3537 61.1039 65.7674C62.0137 65.7404 61.4678 65.7674 62.29 65.7674C63.1256 65.7674 64.6689 65.2147 63.5974 64.8845C62.5258 64.5543 60.8613 63.011 61.9328 63.011C63.0043 63.011 63.84 62.3439 62.29 61.9058C60.7737 61.4745 59.2573 56.4876 58.1858 56.2989V56.2854C58.1791 56.2854 58.1656 56.2921 58.1589 56.2921C58.1454 56.2921 58.1319 56.2854 58.1252 56.2854V56.2989C57.0536 56.4876 55.5373 61.4745 54.021 61.9058C52.471 62.3439 53.3067 63.011 54.3782 63.011C55.4497 63.011 53.7852 64.5543 52.7136 64.8845C51.6421 65.2147 53.1854 65.7674 54.021 65.7674C54.8432 65.7674 53.401 66.7311 54.3175 66.758C53.3269 67.3443 53.4549 67.9643 52.1206 68.0789C49.4991 68.3013 50.3347 69.9524 51.2849 69.7367C52.2351 69.5143 51.7365 69.885 52.808 70.323C53.8795 70.7611 53.8391 71.0576 54.6747 70.6128C55.5036 70.1748 54.021 71.4956 53.6638 71.8259C53.3067 72.1561 52.3565 71.9404 51.6421 72.9311C51.2378 73.4972 50.1865 74.0902 49.5395 74.5822C49.3238 74.4002 49.1217 74.2115 48.9397 74.0228C49.2497 73.733 49.3441 73.3556 49.6743 73.0254C50.3078 72.3717 51.8375 72.7828 51.8375 71.9C51.8375 71.0104 48.6499 70.1815 47.5649 70.0063C47.046 69.9187 46.3788 69.3458 45.7251 68.7326C45.9408 68.2474 46.0486 67.7285 46.4799 67.998C47.2482 68.4698 48.778 68.5843 49.9304 68.1126C51.076 67.6408 48.1377 66.4548 47.3695 65.39C46.608 64.3252 45.5836 64.5611 45.1995 64.2106C44.8153 63.8534 43.1575 61.7845 44.0538 62.2563C44.9434 62.728 45.0714 62.5528 46.2238 62.081C47.3695 61.6093 46.736 61.7239 47.7536 61.9597C48.778 62.1956 49.6743 60.4232 46.864 60.1873C45.4286 60.066 44.5997 58.3341 43.5416 57.7006C44.5188 57.6736 43.9393 57.7006 44.8153 57.7006C45.7117 57.7006 47.3695 57.1076 46.2238 56.7504C45.0714 56.3999 43.2856 54.7421 44.438 54.7421C45.5836 54.7421 46.4799 54.0345 44.8153 53.5628C43.1912 53.0978 41.5603 47.7469 40.4147 47.5447V47.5245C40.4012 47.5245 40.3945 47.538 40.381 47.538C40.3742 47.538 40.3608 47.5245 40.3473 47.5245V47.5447C39.2016 47.7469 37.5775 53.0978 35.9466 53.5628C34.2821 54.0345 35.1784 54.7421 36.3308 54.7421C37.4764 54.7421 35.6905 56.3999 34.5381 56.7504C33.3925 57.1076 35.0503 57.7006 35.9466 57.7006C36.8227 57.7006 35.2794 58.7384 36.2634 58.7654C35.6097 59.1562 35.4075 59.5606 35.0166 59.8369C34.5247 59.3382 32.8466 58.9136 32.2199 58.8058C31.8627 58.7519 31.4044 58.3543 30.9529 57.9365C31.1012 57.5995 31.1753 57.2423 31.4718 57.431C31.9975 57.7545 33.0488 57.8354 33.844 57.5119C34.6325 57.1817 32.6107 56.373 32.0851 55.6384C31.5594 54.9038 30.8586 55.0656 30.589 54.823C30.3329 54.5804 29.1873 53.1584 29.8005 53.4819C30.4138 53.8054 30.5081 53.6841 31.2966 53.3606C32.0851 53.0371 31.647 53.118 32.3479 53.2797C33.0488 53.4415 33.6621 52.2217 31.7347 52.0599C30.7507 51.9791 30.1779 50.7862 29.4568 50.3549C30.124 50.328 29.7264 50.3549 30.3329 50.3549C30.9462 50.3549 32.0851 49.9438 31.2966 49.7012C30.5081 49.4586 29.2749 48.3197 30.0633 48.3197C30.8586 48.3197 31.4718 47.8277 30.3329 47.5043C29.2075 47.1875 28.0888 43.5079 27.3003 43.3732V43.3597H27.2599V43.3732C26.4714 43.5079 25.3527 47.1875 24.2272 47.5043C23.0883 47.8277 23.7016 48.3197 24.4901 48.3197C25.2853 48.3197 24.052 49.4586 23.2635 49.7012C22.4751 49.9438 23.614 50.3549 24.2272 50.3549C24.8338 50.3549 23.7757 51.0625 24.4496 51.0828C23.7151 51.5208 23.8094 51.9791 22.8255 52.0599C20.8914 52.2217 21.5114 53.4415 22.2122 53.2797C22.9131 53.118 22.5425 53.3875 23.3309 53.711C24.1262 54.0412 24.0992 54.2569 24.7125 53.9334C25.3257 53.6032 24.2272 54.5804 23.9712 54.823C23.7016 55.0656 23.0007 54.9038 22.4751 55.6384C22.0168 56.2786 20.4196 56.9728 20.5409 57.3569C20.5611 57.4108 20.6083 57.458 20.6892 57.4917C20.6959 57.4984 20.7094 57.5052 20.7161 57.5119C21.5114 57.8354 22.5627 57.7545 23.0883 57.431C23.2029 57.3569 23.2838 57.3704 23.3512 57.431C22.8996 57.8489 22.3807 58.3813 21.9359 58.6508C21.7944 58.7317 21.6664 58.7923 21.5518 58.8058C21.4642 58.826 21.3631 58.8463 21.2418 58.8665L17.9396 55.8069L4.79154 43.6293C3.32914 42.2747 3.32914 40.0777 4.79154 38.7164L22.6368 22.1853L24.6653 20.3051H20.6083L2.76979 36.8295C-0.923263 40.2462 -0.923263 45.7993 2.76979 49.216L28.1831 72.7626L29.039 73.5578L29.2479 73.7465L68.308 109.936C72.0078 113.359 77.9922 113.359 81.6852 109.936L130.82 64.4195L135.019 60.531L147.23 49.216C150.923 45.7993 150.923 40.2462 147.23 36.8295ZM30.6699 67.6004L29.7399 66.7378C29.9016 66.6232 30.0566 66.475 30.2183 66.32C30.6227 65.9291 31.0607 65.5113 31.8223 65.5584C32.4018 65.5989 32.8601 65.5989 33.2442 65.5719C32.7321 66.1245 31.7549 66.6906 31.1349 67.1691C30.9327 67.3241 30.7642 67.4724 30.6699 67.6004ZM33.3453 69.2245C33.1768 69.3661 33.0084 69.5009 32.8466 69.6154L31.4247 68.2945C31.7684 68.3754 32.1255 68.4158 32.476 68.4158C33.1836 68.4158 33.8507 68.2608 34.2821 67.998C34.4505 67.8902 34.5718 67.9104 34.6662 67.998C34.2484 68.3821 33.7901 68.8404 33.3453 69.2245ZM36.2903 63.53C36.2162 63.4221 36.1555 63.2873 36.0881 63.1256C36.2364 63.1054 36.4049 63.0313 36.6475 62.9032C37.2068 62.6067 36.7823 63.065 36.2903 63.53ZM51.8915 76.24C51.6286 76.085 51.3591 75.9165 51.0895 75.7346C51.6354 75.7009 52.1341 75.5661 52.471 75.3572C52.6328 75.2628 52.7406 75.2763 52.8282 75.3572C52.5317 75.6335 52.2149 75.9502 51.8915 76.24ZM65.8145 73.915C65.3563 73.5915 64.9047 73.2546 64.6689 72.9311C63.9545 71.9404 63.0043 72.1561 62.6471 71.8259C62.29 71.4956 60.7467 69.5682 61.5756 70.013C62.3034 70.3972 62.4854 70.3163 63.2402 69.9928C62.6471 70.4174 62.1956 70.8015 62.1956 71.098C62.1956 71.2395 62.2967 71.3609 62.5393 71.4619C64.0556 72.0887 66.0639 71.9269 67.0748 71.3069C67.6341 70.9565 67.7824 71.6372 68.0654 72.2774C67.2769 73.0187 66.4682 73.7196 65.8145 73.915ZM87.4405 71.8259C87.0833 72.1561 86.1331 71.9404 85.4187 72.9311C85.3042 73.0928 85.1357 73.2546 84.947 73.4096C84.1855 72.8637 83.3431 72.0078 82.595 71.3137C82.7231 71.1991 82.8781 71.1722 83.0937 71.3069C84.1046 71.9269 86.1129 72.0887 87.6292 71.4619C88.3368 71.1722 87.8583 70.6735 87.0496 70.0804C87.6426 70.3298 87.8516 70.3567 88.512 70.013C89.3476 69.5682 87.7976 71.4956 87.4405 71.8259ZM100.642 77.4328C100.265 77.3385 99.9349 77.2711 99.699 77.2307C99.0251 77.1228 98.0614 76.1052 97.2594 75.3572C97.347 75.2763 97.4548 75.2628 97.6166 75.3572C98.3242 75.7952 99.7529 75.9098 100.824 75.465C101.013 75.3909 101.081 75.2965 101.067 75.1819C101.107 75.2156 101.141 75.2426 101.175 75.2763C101.519 75.6267 101.62 76.0176 101.936 76.3209C101.566 76.6915 101.121 77.0757 100.642 77.4328ZM120.375 66.63L118.811 68.0789C118.643 67.9508 118.481 67.8228 118.346 67.688C118.232 67.5802 118.137 67.4724 118.056 67.3645C117.268 66.2593 116.203 66.5087 115.806 66.138C115.415 65.7741 113.757 64.2982 114.687 64.7902C115.327 65.1271 115.502 65.0732 115.947 64.8508C116.372 64.9856 116.783 65.1811 117.079 65.3158C117.605 65.5584 118.306 65.6393 119.627 65.5584C119.957 65.5382 120.233 65.6056 120.469 65.7269C120.658 65.8213 120.819 65.9426 120.974 66.0774L120.375 66.63ZM128.893 58.7384C128.731 58.671 128.556 58.5497 128.374 58.4015C128.199 58.2599 128.017 58.0982 127.842 57.9365C127.99 57.5995 128.064 57.2423 128.361 57.431C128.563 57.5523 128.839 57.6399 129.149 57.6804C129.425 57.7208 129.729 57.7276 130.032 57.6871L128.893 58.7384Z" fill="white"/>
<path d="M66.7716 8.6935C66.9805 9.29329 67.587 9.67742 68.234 9.67742C68.389 9.67742 68.5507 9.6572 68.7125 9.61003C69.5212 9.36742 69.9592 8.56546 69.6964 7.81741C68.8405 5.3711 67.2231 3.34262 65.0329 1.96109C63.0044 0.673915 60.6053 0 58.0916 0C55.5779 0 53.172 0.673915 51.1503 1.95435C48.96 3.33588 47.3426 5.36436 46.4868 7.81067C46.2239 8.55872 46.6687 9.36068 47.4707 9.60329C48.2794 9.8459 49.1487 9.43481 49.4048 8.68676C50.9144 4.38045 54.8837 2.84392 58.0848 2.84392C61.2859 2.84392 65.262 4.38045 66.7716 8.6935Z" fill="white"/>
<path d="M98.8498 1.95435C96.828 0.673915 94.4222 0 91.9085 0C89.3948 0 86.9889 0.673915 84.9671 1.95435C82.7769 3.33588 81.1595 5.36436 80.3037 7.81068C80.0408 8.55872 80.4856 9.36068 81.2876 9.60329C82.0963 9.8459 82.9656 9.43481 83.2217 8.68676C84.7313 4.38045 88.7006 2.84392 91.9017 2.84392C95.1096 2.84392 99.0722 4.38045 100.582 8.68676C100.791 9.28655 101.397 9.67068 102.044 9.67068C102.199 9.67068 102.361 9.65046 102.523 9.60329C103.331 9.36068 103.769 8.55872 103.507 7.81068C102.657 5.36436 101.04 3.33588 98.8498 1.95435Z" fill="white"/>
<path d="M86.4971 24.0319H63.4964C63.0718 24.0319 62.7281 24.3958 62.7416 24.8406C63.3279 45.8532 86.6723 45.8532 87.2586 24.8406C87.2654 24.3958 86.9217 24.0319 86.4971 24.0319Z" fill="white"/>
</svg>
