<svg fill="none" height="65" viewBox="0 0 175 65" width="175" xmlns="http://www.w3.org/2000/svg">
    <g filter="url(#filter0_b_75_1397)">
        <circle cx="87.5" cy="32.5" fill="black" fill-opacity="0.15" r="32.5" />
    </g>
    <path clip-rule="evenodd" d="M87.4999 57.6415C101.385 57.6415 112.641 46.3853 112.641 32.5C112.641 18.6147 101.385 7.35847 87.4999 7.35847C73.6146 7.35847 62.3584 18.6147 62.3584 32.5C62.3584 46.3853 73.6146 57.6415 87.4999 57.6415Z"
        fill="white"
        fill-rule="evenodd" />
    <path clip-rule="evenodd" d="M87.5 53C98.8218 53 108 43.8218 108 32.5C108 21.1782 98.8218 12 87.5 12C76.1782 12 67 21.1782 67 32.5C67 43.8218 76.1782 53 87.5 53Z"
        fill-rule="evenodd"
        stroke="#9F9F9F" stroke-width="2" />
    <circle cx="17.5" cy="32.5" fill="#D9D9D9" r="17.5" />
    <path
        d="M26.75 37.25C26.75 37.5815 26.6183 37.8995 26.3839 38.1339C26.1495 38.3683 25.8315 38.5 25.5 38.5H10.5C10.1685 38.5 9.85054 38.3683 9.61612 38.1339C9.3817 37.8995 9.25 37.5815 9.25 37.25V29.75C9.25 29.4185 9.3817 29.1005 9.61612 28.8661C9.85054 28.6317 10.1685 28.5 10.5 28.5H11.965C12.959 28.4995 13.9122 28.1043 14.615 27.4012L15.6525 26.3663C15.8863 26.1324 16.2031 26.0007 16.5338 26H19.4637C19.7952 26.0001 20.1131 26.1318 20.3475 26.3663L21.3825 27.4012C21.7308 27.7496 22.1443 28.026 22.5994 28.2145C23.0546 28.4031 23.5424 28.5001 24.035 28.5H25.5C25.8315 28.5 26.1495 28.6317 26.3839 28.8661C26.6183 29.1005 26.75 29.4185 26.75 29.75V37.25ZM10.5 27.25C9.83696 27.25 9.20107 27.5134 8.73223 27.9822C8.26339 28.4511 8 29.087 8 29.75V37.25C8 37.913 8.26339 38.5489 8.73223 39.0178C9.20107 39.4866 9.83696 39.75 10.5 39.75H25.5C26.163 39.75 26.7989 39.4866 27.2678 39.0178C27.7366 38.5489 28 37.913 28 37.25V29.75C28 29.087 27.7366 28.4511 27.2678 27.9822C26.7989 27.5134 26.163 27.25 25.5 27.25H24.035C23.372 27.2499 22.7362 26.9864 22.2675 26.5175L21.2325 25.4825C20.7638 25.0136 20.128 24.7501 19.465 24.75H16.535C15.872 24.7501 15.2362 25.0136 14.7675 25.4825L13.7325 26.5175C13.2638 26.9864 12.628 27.2499 11.965 27.25H10.5Z"
        fill="black" />
    <path
        d="M18 36C17.1712 36 16.3763 35.6708 15.7903 35.0847C15.2042 34.4987 14.875 33.7038 14.875 32.875C14.875 32.0462 15.2042 31.2513 15.7903 30.6653C16.3763 30.0792 17.1712 29.75 18 29.75C18.8288 29.75 19.6237 30.0792 20.2097 30.6653C20.7958 31.2513 21.125 32.0462 21.125 32.875C21.125 33.7038 20.7958 34.4987 20.2097 35.0847C19.6237 35.6708 18.8288 36 18 36ZM18 37.25C19.1603 37.25 20.2731 36.7891 21.0936 35.9686C21.9141 35.1481 22.375 34.0353 22.375 32.875C22.375 31.7147 21.9141 30.6019 21.0936 29.7814C20.2731 28.9609 19.1603 28.5 18 28.5C16.8397 28.5 15.7269 28.9609 14.9064 29.7814C14.0859 30.6019 13.625 31.7147 13.625 32.875C13.625 34.0353 14.0859 35.1481 14.9064 35.9686C15.7269 36.7891 16.8397 37.25 18 37.25ZM11.75 30.375C11.75 30.5408 11.6842 30.6997 11.5669 30.8169C11.4497 30.9342 11.2908 31 11.125 31C10.9592 31 10.8003 30.9342 10.6831 30.8169C10.5658 30.6997 10.5 30.5408 10.5 30.375C10.5 30.2092 10.5658 30.0503 10.6831 29.9331C10.8003 29.8158 10.9592 29.75 11.125 29.75C11.2908 29.75 11.4497 29.8158 11.5669 29.9331C11.6842 30.0503 11.75 30.2092 11.75 30.375Z"
        fill="black" />
    <circle cx="157.5" cy="32.5" fill="#D9D9D9" r="17.5" />
    <path
        d="M161 33V37.4C161 37.4788 160.984 37.5568 160.954 37.6296C160.924 37.7024 160.88 37.7685 160.824 37.8243C160.769 37.88 160.702 37.9242 160.63 37.9543C160.557 37.9845 160.479 38 160.4 38H149.6C149.521 38 149.443 37.9845 149.37 37.9543C149.298 37.9242 149.231 37.88 149.176 37.8243C149.12 37.7685 149.076 37.7024 149.046 37.6296C149.016 37.5568 149 37.4788 149 37.4V28.6C149 28.4409 149.063 28.2883 149.176 28.1757C149.288 28.0632 149.441 28 149.6 28H160.4C160.559 28 160.712 28.0632 160.824 28.1757C160.937 28.2883 161 28.4409 161 28.6V33ZM161 33L166.016 28.82C166.104 28.747 166.21 28.7005 166.323 28.6859C166.436 28.6714 166.551 28.6893 166.655 28.7377C166.758 28.7861 166.845 28.8629 166.906 28.9591C166.967 29.0553 167 29.167 167 29.281V36.719C167 36.8329 166.967 36.9445 166.906 37.0405C166.845 37.1366 166.757 37.2133 166.654 37.2615C166.551 37.3098 166.436 37.3276 166.323 37.313C166.21 37.2984 166.104 37.2519 166.016 37.179L161 33Z"
        stroke="black" stroke-linecap="round" stroke-linejoin="round" stroke-width="1.5" />
    <defs>
        <filter color-interpolation-filters="sRGB" filterUnits="userSpaceOnUse" height="75" id="filter0_b_75_1397" width="75"
            x="50" y="-5">
            <feFlood flood-opacity="0" result="BackgroundImageFix" />
            <feGaussianBlur in="BackgroundImageFix" stdDeviation="2.5" />
            <feComposite in2="SourceAlpha" operator="in" result="effect1_backgroundBlur_75_1397" />
            <feBlend in="SourceGraphic" in2="effect1_backgroundBlur_75_1397" mode="normal"
                result="shape" />
        </filter>
    </defs>
</svg>
