<svg width="30" height="30" viewBox="0 0 30 30" fill="none" xmlns="http://www.w3.org/2000/svg">
<path d="M10.945 26.7075C11.1962 26.9588 11.4944 27.1582 11.8227 27.2942C12.151 27.4302 12.5028 27.5002 12.8581 27.5002C13.2134 27.5002 13.5653 27.4302 13.8935 27.2942C14.2218 27.1582 14.5201 26.9588 14.7713 26.7075L25.4575 16.0213C25.9648 15.5141 26.2499 14.8261 26.25 14.1087V6.45375C26.25 4.9625 25.0375 3.75 23.545 3.75L15.8913 3.75C15.175 3.75 14.4862 4.035 13.9787 4.5425L3.2925 15.2287C3.0412 15.4799 2.84185 15.7782 2.70584 16.1065C2.56983 16.4347 2.49982 16.7866 2.49982 17.1419C2.49982 17.4972 2.56983 17.849 2.70584 18.1773C2.84185 18.5056 3.0412 18.8038 3.2925 19.055L10.945 26.7075Z" stroke="white" stroke-width="2" stroke-linecap="round" stroke-linejoin="round"/>
<path d="M21.875 8.125L21.25 8.75" stroke="white" stroke-width="2" stroke-linecap="round"/>
</svg>
