<svg fill="none" height="28" viewBox="0 0 28 28" width="28" xmlns="http://www.w3.org/2000/svg">
    <path
        d="M10.6656 25.1831C8.73595 24.607 6.98836 23.541 5.59292 22.0891C6.0419 21.5566 6.32178 20.9022 6.39675 20.2097C6.47172 19.5172 6.33837 18.8181 6.01376 18.2019C5.68915 17.5856 5.18806 17.0802 4.57459 16.7504C3.96112 16.4205 3.26318 16.2812 2.57009 16.3502C2.41219 15.5768 2.33284 14.7894 2.33325 14C2.33325 12.7808 2.51992 11.6048 2.86759 10.5H2.91659C3.51144 10.5002 4.09654 10.3488 4.61661 10.06C5.13669 9.77127 5.5746 9.35474 5.88898 8.84974C6.20336 8.34475 6.38385 7.76796 6.41339 7.17383C6.44294 6.57971 6.32057 5.98786 6.05784 5.45416C7.42551 4.18064 9.07954 3.2549 10.8803 2.75508C11.1733 3.33048 11.6198 3.8136 12.1704 4.15097C12.721 4.48834 13.3542 4.66682 13.9999 4.66666C14.6456 4.66682 15.2788 4.48834 15.8294 4.15097C16.38 3.8136 16.8265 3.33048 17.1196 2.75508C18.9203 3.2549 20.5743 4.18064 21.942 5.45416C21.6774 5.9916 21.5551 6.58796 21.5869 7.18617C21.6187 7.78438 21.8035 8.36442 22.1236 8.87076C22.4438 9.37711 22.8885 9.7928 23.4153 10.0781C23.9421 10.3633 24.5333 10.5086 25.1323 10.5C25.4875 11.6327 25.6677 12.8129 25.6666 14C25.6666 14.805 25.5849 15.5913 25.4298 16.3502C24.7367 16.2812 24.0387 16.4205 23.4253 16.7504C22.8118 17.0802 22.3107 17.5856 21.9861 18.2019C21.6615 18.8181 21.5281 19.5172 21.6031 20.2097C21.6781 20.9022 21.9579 21.5566 22.4069 22.0891C21.0115 23.541 19.2639 24.607 17.3343 25.1831C17.1077 24.4768 16.6627 23.8608 16.0634 23.4237C15.4642 22.9866 14.7416 22.7511 13.9999 22.7511C13.2582 22.7511 12.5357 22.9866 11.9364 23.4237C11.3372 23.8608 10.8922 24.4768 10.6656 25.1831Z"
        stroke="white" stroke-linejoin="round" stroke-width="1.5" />
    <path
        d="M13.9998 18.0833C14.5361 18.0833 15.067 17.9777 15.5625 17.7725C16.0579 17.5673 16.508 17.2665 16.8872 16.8874C17.2664 16.5082 17.5671 16.058 17.7723 15.5626C17.9776 15.0672 18.0832 14.5362 18.0832 14C18.0832 13.4638 17.9776 12.9328 17.7723 12.4374C17.5671 11.942 17.2664 11.4918 16.8872 11.1127C16.508 10.7335 16.0579 10.4327 15.5625 10.2275C15.067 10.0223 14.5361 9.91667 13.9998 9.91667C12.9169 9.91667 11.8783 10.3469 11.1125 11.1127C10.3467 11.8784 9.9165 12.917 9.9165 14C9.9165 15.083 10.3467 16.1216 11.1125 16.8874C11.8783 17.6531 12.9169 18.0833 13.9998 18.0833V18.0833Z"
        stroke="white" stroke-linejoin="round" stroke-width="1.5" />
</svg>
