<svg width="13" height="13" viewBox="0 0 13 13" fill="none" xmlns="http://www.w3.org/2000/svg">
<path d="M9.34976 0.273067L3.1338 2.33885C-1.0446 3.73669 -1.0446 6.01593 3.1338 7.40689L4.97862 8.01974L5.59127 9.86517C6.98178 14.0449 9.26716 14.0449 10.6577 9.86517L12.7297 3.65406C13.6521 0.865257 12.1377 -0.656535 9.34976 0.273067ZM9.57004 3.9777L6.95424 6.60813C6.85099 6.71141 6.7202 6.75962 6.58941 6.75962C6.45862 6.75962 6.32783 6.71141 6.22457 6.60813C6.02495 6.40843 6.02495 6.07791 6.22457 5.87822L8.84037 3.24779C9.04 3.0481 9.37041 3.0481 9.57004 3.24779C9.76967 3.44748 9.76967 3.77801 9.57004 3.9777Z" fill="white"/>
</svg>
