<svg width="150" height="113" viewBox="0 0 150 113" fill="none" xmlns="http://www.w3.org/2000/svg">
<path d="M20.6353 64.0759C20.6353 64.0759 23.769 63.1256 25.11 61.6767C26.4511 60.2278 28.4998 59.2776 28.4998 59.2776C25.0494 59.6348 22.8053 62.7752 20.6353 64.0759Z" fill="white"/>
<path d="M49.782 56.8919C47.5513 57.4715 45.6441 59.1293 44.8691 59.8774C46.3652 58.6037 50.4289 57.0267 50.4289 57.0267L49.782 56.8919Z" fill="white"/>
<path d="M44.5054 60.248C44.5054 60.248 44.6334 60.1065 44.8693 59.8773C44.721 60.0054 44.593 60.1267 44.5054 60.248Z" fill="white"/>
<path d="M81.914 49.4114L81.0177 48.7577C81.0177 48.7577 76.7923 47.6323 75.4849 46.5675C75.4849 46.5675 78.6253 50.301 81.914 49.4114Z" fill="white"/>
<path d="M82.5277 46.8776C83.7407 49.7956 83.5857 54.0884 86.369 55.8945C86.369 55.8945 86.2746 53.7582 86.7531 53.3471C87.2316 52.9293 88.6064 54.9443 88.8625 56.6358C88.8625 51.3591 84.5157 50.975 83.9024 47.6593C83.2892 44.3436 82.7164 42.888 77.79 42.5038C77.79 42.5038 81.3079 43.9595 82.5277 46.8776Z" fill="white"/>
<path d="M138.948 66.8659L142.789 66.9872C138.213 64.9452 138.638 66.6704 133.516 62.9572C133.509 62.9504 135.942 65.7674 138.948 66.8659Z" fill="white"/>
<path d="M74.7504 56.8919C73.2812 59.5741 67.6203 59.81 69.1232 62.7145C70.626 65.6191 76.543 67.8093 76.543 67.8093H100.177C92.3597 61.7374 83.8145 62.9437 80.5528 61.0702C77.291 59.1967 81.2334 58.3476 80.8897 56.6358C80.2158 53.3336 68.2471 54.331 68.2471 54.331C73.5777 54.7556 75.2625 55.9686 74.7504 56.8919Z" fill="white"/>
<path d="M147.23 63.2874L81.692 2.56762C77.9989 -0.855872 72.0078 -0.855872 68.3148 2.56762L2.76979 63.2874C-0.923263 66.7109 -0.923263 72.2572 2.76979 75.6807L20.6083 92.2051H24.672L26.6736 90.3518L6.79306 71.9404C5.33067 70.5859 5.33067 68.3822 6.79306 67.0276H6.7998C11.6048 66.4682 14.2735 64.1095 21.0194 57.3232L26.7746 57.5591L32.6579 52.343C35.4075 55.2476 40.0777 54.7152 40.0777 54.7152C29.1401 60.6995 27.6036 66.5693 27.6036 66.5693C29.9757 62.6539 35.1514 60.403 35.1514 60.403C34.3899 62.418 35.4075 63.9006 35.4075 63.9006C37.0721 61.3532 42.6386 55.7799 52.1408 52.5519C52.1408 52.5519 51.1771 54.331 53.2932 56.993C55.4025 59.6617 54.5062 61.5015 50.0921 64.8778C54.9847 64.9048 58.2465 61.6161 58.2465 61.6161C58.2465 61.6161 61.7374 64.2848 64.9317 64.1971C60.868 62.8628 60.4232 59.3382 60.4232 59.3382C57.3839 57.3232 56.7099 54.2973 56.7099 54.2973C62.1821 54.331 65.8617 57.2289 65.8617 57.2289C68.9011 54.2973 65.9224 53.7649 65.9224 51.541C65.9224 49.3171 69.7974 47.5447 71.745 46.8775C73.6993 46.2104 75.6806 46.0284 75.903 43.0362L75.2965 34.1473C75.2965 34.1473 76.2872 33.6149 77.3115 32.3681C79.7107 38.5884 83.06 43.973 91.7737 48.7375C91.2616 48.3062 82.8242 41.2436 83.2285 37.8201C83.2285 37.8201 90.0081 43.9258 92.5083 45.5567C95.0018 47.1875 93.2092 50.0921 91.9624 51.8982C90.7157 53.7043 90.7427 56.1371 92.5083 55.9754H97.2055L92.4072 62.9639C93.2429 61.8384 95.8307 60.5782 97.2998 60.5378C98.7757 60.4906 98.5533 61.023 97.2527 61.798C95.9587 62.5663 95.7229 63.7658 97.8457 65.545C97.8457 65.545 101.795 62.0474 102.759 61.0971C103.716 60.1537 105.522 58.7856 105.845 59.0821C106.162 59.3787 105.589 59.9313 105.589 59.9313L100.723 64.0758L111.216 62.4787L107.631 65.3226L111.6 64.9654C111.6 64.9654 112.813 63.0717 117.679 62.5393L123.562 58.3273C125.099 63.4221 130.214 63.7187 130.214 63.7187C130.214 63.7187 125.416 60.2278 125.288 56.8447L131.494 61.6497L137.317 61.7037L137.681 61.9058L145.208 68.8809C146.671 70.2354 146.671 72.4324 145.208 73.787L127.363 90.3248L125.328 92.2051H129.398L147.23 75.6807C150.923 72.2572 150.923 66.7109 147.23 63.2874ZM134.372 59.7493C134.372 59.7493 129.129 54.7152 123.306 52.8754C121.965 54.0008 117.295 58.3273 117.295 58.3273C113.137 51.5747 109.039 49.6743 105.973 48.7308C102.9 47.7806 100.339 44.4043 96.5046 43.454C92.6633 42.5038 92.4072 41.0212 90.9987 39.1275C89.597 37.2271 87.865 36.7553 85.4996 35.5692C83.1342 34.3831 81.4696 32.8466 76.2872 26.5927C70.3365 28.9918 61.3802 39.3903 56.3595 42.0321C51.3388 44.6671 46.763 47.5717 42.989 51.6286L35.8927 51.2917L32.2468 48.5825L23.8027 55.2004H19.5772C17.9801 57.4647 15.5068 60.0458 11.4026 62.755L72.3515 6.29437C73.8139 4.9398 76.1861 4.9398 77.6485 6.29437L135.511 59.8908L134.372 59.7493Z" fill="white"/>
<path d="M66.7784 80.5935C66.9874 81.1933 67.5939 81.5774 68.2408 81.5774C68.3958 81.5774 68.5576 81.5572 68.7193 81.51C69.528 81.2674 69.9661 80.4655 69.7032 79.7174C68.8474 77.2711 67.23 75.2426 65.0397 73.8611C63.018 72.5807 60.6121 71.9067 58.0984 71.9067C55.5847 71.9067 53.1788 72.5807 51.1571 73.8611C48.9669 75.2426 47.3495 77.2711 46.4936 79.7174C46.2308 80.4655 46.6756 81.2674 47.4775 81.51C48.2862 81.7526 49.1556 81.3415 49.4117 80.5935C50.9212 76.2872 54.8906 74.7507 58.0917 74.7507C61.2928 74.7507 65.2621 76.2872 66.7784 80.5935Z" fill="white"/>
<path d="M98.8498 73.8544C96.828 72.5739 94.4222 71.9 91.9085 71.9C89.3948 71.9 86.9889 72.5739 84.9671 73.8544C82.7769 75.2359 81.1595 77.2644 80.3037 79.7107C80.0408 80.4587 80.4856 81.2607 81.2876 81.5033C82.0963 81.7459 82.9656 81.3348 83.2217 80.5868C84.7313 76.2805 88.7006 74.7439 91.9017 74.7439C95.1096 74.7439 99.0722 76.2805 100.582 80.5868C100.791 81.1866 101.397 81.5707 102.044 81.5707C102.199 81.5707 102.361 81.5505 102.523 81.5033C103.331 81.2607 103.769 80.4587 103.507 79.7107C102.657 77.2644 101.047 75.2426 98.8498 73.8544Z" fill="white"/>
<path d="M86.5039 95.9318H63.5032C63.0787 95.9318 62.735 96.2957 62.7484 96.7405C63.3347 117.753 86.6792 117.753 87.2655 96.7405C87.2722 96.2957 86.9285 95.9318 86.5039 95.9318Z" fill="white"/>
</svg>
