<svg fill="none" height="28" viewBox="0 0 28 28" width="28" xmlns="http://www.w3.org/2000/svg">
    <path
        d="M3.5 5.83333V10.5H5.83333V5.83333H10.5V3.5H5.83333C4.55 3.5 3.5 4.55 3.5 5.83333ZM5.83333 17.5H3.5V22.1667C3.5 23.45 4.55 24.5 5.83333 24.5H10.5V22.1667H5.83333V17.5ZM22.1667 22.1667H17.5V24.5H22.1667C23.45 24.5 24.5 23.45 24.5 22.1667V17.5H22.1667V22.1667ZM22.1667 3.5H17.5V5.83333H22.1667V10.5H24.5V5.83333C24.5 4.55 23.45 3.5 22.1667 3.5Z"
        fill="white" />
    <rect fill="white" height="7" width="7" x="10.5" y="10.5" />
</svg>
