<svg fill="none" height="19" viewBox="0 0 20 19" width="20" xmlns="http://www.w3.org/2000/svg">
    <path
        d="M11.3472 6.75L11.6765 5.7627L12.7993 2.39653C12.7993 2.39637 12.7994 2.39621 12.7994 2.39606C12.9256 2.01581 12.8611 1.59335 12.6277 1.26969M11.3472 6.75L12.6277 1.26969M11.3472 6.75H12.388H18C18.6888 6.75 19.25 7.31121 19.25 8L19.25 10L19.25 10.0013C19.25 10.0312 19.2447 10.0609 19.2343 10.089C19.2343 10.089 19.2343 10.089 19.2342 10.089L16.4786 17.4363C16.4785 17.4366 16.4784 17.4368 16.4783 17.4371C16.3879 17.6753 16.2274 17.8805 16.018 18.0256C15.8087 18.1707 15.5602 18.2489 15.3055 18.25H2C1.31121 18.25 0.75 17.6888 0.75 17V8C0.75 7.31121 1.31121 6.75 2 6.75H4.531H4.88228L5.10717 6.48014L9.80592 0.841625C9.80608 0.841437 9.80624 0.841249 9.80639 0.841062M11.3472 6.75L9.80639 0.841062M12.6277 1.26969C12.3937 0.945251 12.0121 0.75 11.612 0.75H10C9.92674 0.75 9.8559 0.782294 9.80639 0.841062M12.6277 1.26969L9.80639 0.841062"
        stroke="white" stroke-width="1.5" />
</svg>
