<svg width="26" height="26" viewBox="0 0 26 26" fill="none" xmlns="http://www.w3.org/2000/svg">
<path d="M8.66703 13L5.99566 20.8797C5.95607 20.9845 5.94791 21.0982 5.97215 21.2074C5.99638 21.3166 6.052 21.4167 6.13238 21.4957C6.21276 21.5747 6.31453 21.6294 6.42559 21.6533C6.53666 21.6771 6.65234 21.6691 6.75891 21.6301L21.1252 14.0833L21.3482 13.9662L21.5713 13.849L21.7943 13.7318C21.7943 13.7318 22.2085 13.5417 22.2085 13C22.2085 12.4583 21.7943 12.2682 21.7943 12.2682L21.5713 12.151L21.3482 12.0338L21.1252 11.9167L6.75891 4.36988C6.65234 4.33096 6.53666 4.32293 6.42559 4.34676C6.31453 4.37059 6.21276 4.42527 6.13238 4.50431C6.052 4.58334 5.99638 4.68341 5.97215 4.79261C5.94791 4.90181 5.95607 5.01555 5.99566 5.12033L8.66703 13ZM8.66703 13H14.0835" stroke="#FAFAFA" stroke-width="2.1" stroke-linecap="round" stroke-linejoin="round"/>
</svg>
