<svg fill="none" height="28" viewBox="0 0 28 28" width="28" xmlns="http://www.w3.org/2000/svg">
    <path
        d="M11.6666 21C13.7374 20.9996 15.7485 20.3063 17.3798 19.0307L21.6836 23.3345C22.1391 23.7901 22.8777 23.7901 23.3333 23.3345C23.7888 22.879 23.7888 22.1404 23.3333 21.6848L19.0294 17.381C20.3058 15.7496 20.9994 13.738 20.9999 11.6667C20.9999 6.52051 16.8128 2.33334 11.6666 2.33334C6.52042 2.33334 2.33325 6.52051 2.33325 11.6667C2.33325 16.8128 6.52042 21 11.6666 21ZM11.6666 4.66668C15.5271 4.66668 18.6666 7.80618 18.6666 11.6667C18.6666 15.5272 15.5271 18.6667 11.6666 18.6667C7.80609 18.6667 4.66659 15.5272 4.66659 11.6667C4.66659 7.80618 7.80609 4.66668 11.6666 4.66668Z"
        fill="white" />
</svg>
