<svg width="28" height="28" viewBox="0 0 28 28" fill="none" xmlns="http://www.w3.org/2000/svg">
<g clip-path="url(#clip0_12_190)">
<path d="M14 26.6622C14.4899 26.6509 14.9601 26.4667 15.3273 26.1422C15.6946 25.8177 15.9352 25.3737 16.0066 24.8889H11.9155C11.989 25.3869 12.2409 25.8413 12.6243 26.1675C13.0077 26.4937 13.4966 26.6695 14 26.6622Z" fill="white"/>
<path d="M25.2856 21.6456C24.5356 20.9769 23.879 20.2104 23.3334 19.3667C22.7378 18.202 22.3808 16.9301 22.2834 15.6256V11.7833C22.2803 11.3166 22.2386 10.851 22.159 10.3911C21.5468 10.2687 20.9585 10.0481 20.4168 9.73778C20.6232 10.4027 20.7281 11.0949 20.7279 11.7911V15.6333C20.8232 17.2247 21.2609 18.7767 22.0112 20.1833C22.5482 21.0342 23.1853 21.8176 23.909 22.5167H3.99009C4.71374 21.8176 5.35089 21.0342 5.88787 20.1833C6.63812 18.7767 7.07587 17.2247 7.1712 15.6333V11.7833C7.16711 10.8832 7.34061 9.9911 7.68177 9.15811C8.02293 8.32513 8.52505 7.56762 9.15937 6.92896C9.7937 6.2903 10.5478 5.78303 11.3784 5.43621C12.2091 5.08938 13.1 4.90981 14.0001 4.90778C15.3175 4.90883 16.6053 5.29842 17.7023 6.02778C17.5814 5.58365 17.5135 5.12676 17.5001 4.66667V4.17667C16.688 3.77717 15.8155 3.51438 14.9179 3.39889V2.41889C14.9179 2.1435 14.8085 1.8794 14.6137 1.68468C14.419 1.48995 14.1549 1.38055 13.8795 1.38055C13.6042 1.38055 13.34 1.48995 13.1453 1.68468C12.9506 1.8794 12.8412 2.1435 12.8412 2.41889V3.43778C10.8312 3.72132 8.99165 4.72247 7.66215 6.25639C6.33266 7.79032 5.60299 9.75344 5.60787 11.7833V15.6256C5.51046 16.9301 5.15347 18.202 4.55787 19.3667C4.02189 20.2085 3.3758 20.9749 2.63676 21.6456C2.55379 21.7184 2.4873 21.8082 2.44171 21.9087C2.39611 22.0093 2.37245 22.1185 2.37231 22.2289V23.2867C2.37231 23.4929 2.45426 23.6908 2.60012 23.8366C2.74598 23.9825 2.94381 24.0644 3.15009 24.0644H24.7723C24.9786 24.0644 25.1764 23.9825 25.3223 23.8366C25.4681 23.6908 25.5501 23.4929 25.5501 23.2867V22.2289C25.5499 22.1185 25.5263 22.0093 25.4807 21.9087C25.4351 21.8082 25.3686 21.7184 25.2856 21.6456Z" fill="white"/>
<path d="M23.3332 8.55555C25.481 8.55555 27.2221 6.81443 27.2221 4.66666C27.2221 2.51889 25.481 0.777771 23.3332 0.777771C21.1855 0.777771 19.4443 2.51889 19.4443 4.66666C19.4443 6.81443 21.1855 8.55555 23.3332 8.55555Z" fill="#E80000"/>
</g>
<defs>
<clipPath id="clip0_12_190">
<rect width="28" height="28" fill="white"/>
</clipPath>
</defs>
</svg>
