<?xml version="1.0" encoding="utf-8"?>
<!-- Generator: Adobe Illustrator 24.2.3, SVG Export Plug-In . SVG Version: 6.00 Build 0)  -->
<svg version="1.1" id="Layer_1" xmlns="http://www.w3.org/2000/svg" xmlns:xlink="http://www.w3.org/1999/xlink" x="0px" y="0px"
	 viewBox="0 0 66 28" style="enable-background:new 0 0 66 28;" xml:space="preserve">
<style type="text/css">
	.st0{fill:#333030;}
</style>
<path class="st0" d="M15.6,24.5v-9.6h3.2l0.5-3.7h-3.7V8.8c0-1.1,0.3-1.8,1.9-1.8h2V3.6c-1-0.1-1.9-0.2-2.9-0.1
	c-2.9,0-4.8,1.7-4.8,4.9v2.7H8.6v3.7h3.2v9.6H15.6z"/>
<path class="st0" d="M61.4,12.1h-9.9v4.1h5.6c-0.2,1.3-1,2.4-2.1,3.2c-0.9,0.6-2.1,1-3.6,1c-2.7,0-5-1.8-5.9-4.3
	c-0.2-0.6-0.3-1.3-0.3-2s0.1-1.4,0.3-2c0.8-2.5,3.1-4.3,5.9-4.3c1.5,0,2.9,0.5,4,1.6l3-3c-1.8-1.7-4.2-2.7-7-2.7
	c-4.1,0-7.6,2.4-9.4,5.8c-0.7,1.4-1.1,3-1.1,4.7s0.4,3.3,1.1,4.7c1.7,3.4,5.3,5.8,9.4,5.8c2.8,0,5.2-0.9,6.9-2.5
	c2-1.8,3.1-4.5,3.1-7.7C61.6,13.5,61.5,12.8,61.4,12.1z"/>
</svg>
