<svg width="38" height="38" viewBox="0 0 38 38" fill="none" xmlns="http://www.w3.org/2000/svg">
<path d="M14.25 14.25H14.2658M23.75 14.25H23.7658M14.5217 25.0617C15.7094 26.2494 17.3203 26.9167 19 26.9167C20.6797 26.9167 22.2906 26.2494 23.4783 25.0617C24.2851 24.2549 24.8518 23.2529 25.1322 22.1667H12.8678C13.1482 23.2529 13.7149 24.2549 14.5217 25.0617ZM33.25 19C33.25 26.8701 26.8701 33.25 19 33.25C11.1299 33.25 4.75 26.8701 4.75 19C4.75 11.1299 11.1299 4.75 19 4.75C26.8701 4.75 33.25 11.1299 33.25 19Z" stroke="#FEFEFE" stroke-opacity="0.6" stroke-width="2.5" stroke-linecap="round" stroke-linejoin="round"/>
</svg>
