<svg width="28" height="28" viewBox="0 0 28 28" fill="none" xmlns="http://www.w3.org/2000/svg">
<path d="M5.8335 15.1667L19.6702 15.1667L15.4352 20.2534C15.2371 20.4916 15.1419 20.7988 15.1703 21.1073C15.1987 21.4158 15.3486 21.7003 15.5868 21.8984C15.8251 22.0964 16.1322 22.1917 16.4407 22.1632C16.7492 22.1348 17.0338 21.9849 17.2318 21.7467L23.0652 14.7467C23.1044 14.691 23.1395 14.6325 23.1702 14.5717C23.1702 14.5134 23.1702 14.4784 23.2518 14.42C23.3047 14.2863 23.3324 14.1439 23.3335 14C23.3324 13.8562 23.3047 13.7138 23.2518 13.58C23.2518 13.5217 23.2518 13.4867 23.1702 13.4284C23.1395 13.3675 23.1044 13.309 23.0652 13.2534L17.2318 6.25336C17.1221 6.12166 16.9848 6.01575 16.8295 5.94316C16.6742 5.87057 16.5049 5.83308 16.3335 5.83336C16.0609 5.83283 15.7967 5.92777 15.5868 6.10169C15.4687 6.19963 15.371 6.31992 15.2995 6.45566C15.2279 6.5914 15.1838 6.73992 15.1697 6.89273C15.1556 7.04553 15.1718 7.19962 15.2174 7.34615C15.2629 7.49269 15.3369 7.6288 15.4352 7.74669L19.6702 12.8334L5.8335 12.8334C5.52408 12.8334 5.22733 12.9563 5.00854 13.1751C4.78975 13.3939 4.66683 13.6906 4.66683 14C4.66683 14.3094 4.78975 14.6062 5.00854 14.825C5.22733 15.0438 5.52408 15.1667 5.8335 15.1667Z" fill="white"/>
</svg>
