<svg fill="none" height="18" viewBox="0 0 21 18" width="21" xmlns="http://www.w3.org/2000/svg">
    <path
        d="M8.49514 1.0021L2.7629 6.73433C1.63537 7.86186 1.00194 9.39112 1.00194 10.9857C1.00194 12.5802 1.63537 14.1095 2.7629 15.237C3.89043 16.3646 5.41969 16.998 7.01425 16.998C8.60881 16.998 10.1381 16.3646 11.2656 15.237L18.3512 8.15145C19.1029 7.39976 19.5252 6.38026 19.5252 5.31722C19.5252 4.25417 19.1029 3.23467 18.3512 2.48298C17.5995 1.7313 16.58 1.30901 15.5169 1.30901C14.4539 1.30901 13.4344 1.7313 12.6827 2.48298L6.17673 8.98896C5.99064 9.17506 5.84301 9.39599 5.7423 9.63914C5.64158 9.88229 5.58975 10.1429 5.58975 10.4061C5.58975 10.6693 5.64158 10.9299 5.7423 11.173C5.84302 11.4162 5.99064 11.6371 6.17673 11.8232V11.8232C6.55258 12.199 7.06233 12.4102 7.59385 12.4102C8.12537 12.4102 8.63512 12.199 9.01097 11.8232L14.0998 6.73433"
        stroke="white" stroke-linecap="round" stroke-linejoin="round" stroke-width="2" />
</svg>
