<svg width="25" height="25" viewBox="0 0 25 25" fill="none" xmlns="http://www.w3.org/2000/svg">
<g clip-path="url(#clip0_75_1530)">
<path d="M10.8218 5.32227L5.36719 19.1406H8.2019L9.37764 16.1621H15.6224L16.7981 19.1406H19.6328L14.1782 5.32227H10.8218ZM10.4185 13.5254L12.5 8.25195L14.5815 13.5254H10.4185Z" fill="white"/>
<path d="M0.78125 22.2188C0.78125 23.3233 1.67668 24.2188 2.78125 24.2188H22.2188C23.3233 24.2188 24.2188 23.3233 24.2188 22.2188V2.78125C24.2188 1.67668 23.3233 0.78125 22.2188 0.78125H2.78125C1.67668 0.78125 0.78125 1.67668 0.78125 2.78125V22.2188ZM2.34375 4.34375C2.34375 3.23918 3.23918 2.34375 4.34375 2.34375H20.6562C21.7608 2.34375 22.6562 3.23918 22.6562 4.34375V20.6562C22.6562 21.7608 21.7608 22.6562 20.6562 22.6562H4.34375C3.23918 22.6562 2.34375 21.7608 2.34375 20.6562V4.34375Z" fill="white"/>
</g>
<defs>
<clipPath id="clip0_75_1530">
<rect width="25" height="25" fill="white"/>
</clipPath>
</defs>
</svg>
