<svg fill="none" height="5" viewBox="0 0 9 5" width="9" xmlns="http://www.w3.org/2000/svg">
    <path clip-rule="evenodd" d="M7.66786 0.492857L6.42857 1.65893V0.892857C6.42857 0.399746 6.02883 0 5.53571 0H0.892857C0.399746 0 0 0.399746 0 0.892857V4.10714C0 4.60025 0.399746 5 0.892857 5H5.53571C5.77251 5 5.99962 4.90593 6.16706 4.73849C6.3345 4.57104 6.42857 4.34394 6.42857 4.10714V3.34107L7.66786 4.50714C7.82333 4.654 8.05126 4.69431 8.24768 4.60969C8.4441 4.52507 8.57136 4.33173 8.57143 4.11786V0.882143C8.57136 0.668273 8.4441 0.474933 8.24768 0.390311C8.05126 0.305688 7.82333 0.346 7.66786 0.492857Z"
        fill="white"
        fill-rule="evenodd" />
</svg>
