<svg fill="none" height="39" viewBox="0 0 39 39" width="39" xmlns="http://www.w3.org/2000/svg">
    <path
        d="M34.125 26.75H29.25V14.66C29.25 13.5567 28.8117 12.4986 28.0316 11.7184C27.2514 10.9383 26.1933 10.5 25.09 10.5H13V5.625C13 5.19402 12.8288 4.7807 12.524 4.47595C12.2193 4.1712 11.806 4 11.375 4C10.944 4 10.5307 4.1712 10.226 4.47595C9.92121 4.7807 9.75 5.19402 9.75 5.625V10.5H4.875C4.44402 10.5 4.0307 10.6712 3.72595 10.976C3.4212 11.2807 3.25 11.694 3.25 12.125C3.25 12.556 3.4212 12.9693 3.72595 13.274C4.0307 13.5788 4.44402 13.75 4.875 13.75H9.75V25.84C9.75 26.9433 10.1883 28.0014 10.9684 28.7816C11.7486 29.5617 12.8067 30 13.91 30H26V34.875C26 35.306 26.1712 35.7193 26.476 36.024C26.7807 36.3288 27.194 36.5 27.625 36.5C28.056 36.5 28.4693 36.3288 28.774 36.024C29.0788 35.7193 29.25 35.306 29.25 34.875V30H34.125C34.556 30 34.9693 29.8288 35.274 29.524C35.5788 29.2193 35.75 28.806 35.75 28.375C35.75 27.944 35.5788 27.5307 35.274 27.226C34.9693 26.9212 34.556 26.75 34.125 26.75ZM13.91 26.75C13.6687 26.75 13.4372 26.6541 13.2665 26.4835C13.0959 26.3128 13 26.0813 13 25.84V13.75H25.09C25.3313 13.75 25.5628 13.8459 25.7335 14.0165C25.9041 14.1872 26 14.4187 26 14.66V26.75H13.91Z"
        fill="white" />
</svg>
