<svg width="17" height="17" viewBox="0 0 17 17" fill="none" xmlns="http://www.w3.org/2000/svg">
<path d="M16.1499 8.07487C16.1528 9.19673 15.8907 10.3034 15.3849 11.3048C14.7851 12.5048 13.8632 13.5141 12.7222 14.2196C11.5813 14.9252 10.2665 15.2992 8.92499 15.2997C7.80313 15.3027 6.69643 15.0405 5.69505 14.5347L0.850149 16.1497L2.46512 11.3048C1.95932 10.3034 1.69721 9.19673 1.70013 8.07487C1.70065 6.73339 2.07465 5.41854 2.78022 4.27761C3.4858 3.13667 4.49509 2.21471 5.69505 1.61499C6.69643 1.10919 7.80313 0.847083 8.92499 0.850008H9.34998C11.1216 0.947749 12.795 1.69554 14.0497 2.9502C15.3043 4.20486 16.0521 5.87821 16.1499 7.64987V8.07487Z" stroke="white" stroke-width="1.66667" stroke-linecap="round" stroke-linejoin="round"/>
</svg>
