<svg fill="none" height="35" viewBox="0 0 35 35" width="35" xmlns="http://www.w3.org/2000/svg">
    <circle cx="17.5" cy="17.5" fill="#D9D9D9" r="17.5" />
    <path
        d="M25.2 10.8H22.347L20.7 9H15.3L13.653 10.8H10.8C9.81 10.8 9 11.61 9 12.6V23.4C9 24.39 9.81 25.2 10.8 25.2H25.2C26.19 25.2 27 24.39 27 23.4V12.6C27 11.61 26.19 10.8 25.2 10.8ZM25.2 23.4H10.8V12.6H14.445L16.092 10.8H19.908L21.555 12.6H23.3775H25.2V23.4Z"
        fill="black" />
    <path d="M17.3246 20.7L15.2996 18L12.5996 21.6H23.3996L20.0246 17.1L17.3246 20.7Z"
        fill="black" />
</svg>
