<?xml version="1.0" encoding="utf-8"?>
<!-- Generator: Adobe Illustrator 24.2.3, SVG Export Plug-In . SVG Version: 6.00 Build 0)  -->
<svg version="1.1" id="Layer_1" xmlns="http://www.w3.org/2000/svg" x="0px" y="0px" viewBox="0 0 500 500" style="enable-background:new 0 0 500 500;" xml:space="preserve">
<style type="text/css">
	.st0{fill:#606060;}
</style>
<g>
	<path class="st0" d="M142.61,454.8c-4.64-0.97-9.36-1.67-13.91-2.95c-29.14-8.21-47.55-30.67-48.84-61.25
		C78.53,359,82,327.87,94.01,298.28c7.75-19.1,19.01-35.62,37.88-45.71c11.64-6.22,24.12-9.19,37.18-8.92
		c4.12,0.09,8.45,2.17,12.21,4.21c6.06,3.29,11.67,7.39,17.55,11.02c34.19,21.11,68.4,21.09,102.56-0.08
		c4.74-2.94,9.59-5.78,14.04-9.12c8.18-6.13,17.17-6.89,26.89-5.47c26.51,3.9,45.24,18.42,57.87,41.59
		c11.27,20.68,16.35,43.15,18.6,66.3c1.16,11.89,1.71,23.89,1.56,35.83c-0.43,35.66-24.91,62.2-60.38,66.11
		c-0.88,0.1-1.73,0.49-2.6,0.75C285.8,454.8,214.2,454.8,142.61,454.8z"/>
	<path class="st0" d="M346,144.3c0.36,53.86-44.09,98.56-98.26,98.71c-54.15,0.15-98.75-44.48-98.78-98.2
		c-0.03-54.34,43.43-98.39,98.08-98.8C301.5,45.61,345.66,89.48,346,144.3z"/>
</g>
</svg>
